<svg width="356" height="384" viewBox="0 0 356 384" fill="none" xmlns="http://www.w3.org/2000/svg">
<g filter="url(#filter0_d_3281_20095)">
<path d="M2 17C2 8.16344 9.16344 1 18 1H338C346.837 1 354 8.16344 354 17V365C354 373.837 346.837 381 338 381H18C9.16345 381 2 373.837 2 365V17Z" fill="white"/>
<path d="M30 42C25.0293 42 21 37.9707 21 33C21 28.0293 25.0293 24 30 24C34.9707 24 39 28.0293 39 33C39 37.9707 34.9707 42 30 42ZM30 40.2C31.9096 40.2 33.7409 39.4414 35.0912 38.0912C36.4414 36.7409 37.2 34.9096 37.2 33C37.2 31.0904 36.4414 29.2591 35.0912 27.9088C33.7409 26.5586 31.9096 25.8 30 25.8C28.0904 25.8 26.2591 26.5586 24.9088 27.9088C23.5586 29.2591 22.8 31.0904 22.8 33C22.8 34.9096 23.5586 36.7409 24.9088 38.0912C26.2591 39.4414 28.0904 40.2 30 40.2ZM30.9 33H34.5V34.8H29.1V28.5H30.9V33Z" fill="#525866"/>
<path d="M50.7045 28.375V26.8636H59.7102V28.375H56.0795V38.5H54.3295V28.375H50.7045ZM61.3879 38.5V29.7727H63.0868V38.5H61.3879ZM62.2459 28.4261C61.9504 28.4261 61.6966 28.3277 61.4845 28.1307C61.2762 27.9299 61.172 27.6913 61.172 27.4148C61.172 27.1345 61.2762 26.8958 61.4845 26.6989C61.6966 26.4981 61.9504 26.3977 62.2459 26.3977C62.5413 26.3977 62.7932 26.4981 63.0016 26.6989C63.2137 26.8958 63.3197 27.1345 63.3197 27.4148C63.3197 27.6913 63.2137 27.9299 63.0016 28.1307C62.7932 28.3277 62.5413 28.4261 62.2459 28.4261ZM65.1963 38.5V29.7727H66.827V31.1932H66.9349C67.1167 30.7121 67.4141 30.3371 67.827 30.0682C68.2399 29.7955 68.7342 29.6591 69.3099 29.6591C69.8933 29.6591 70.3819 29.7955 70.7758 30.0682C71.1736 30.3409 71.4671 30.7159 71.6565 31.1932H71.7474C71.9558 30.7273 72.2872 30.3561 72.7417 30.0795C73.1963 29.7992 73.738 29.6591 74.3667 29.6591C75.1584 29.6591 75.8042 29.9072 76.3042 30.4034C76.808 30.8996 77.0599 31.6477 77.0599 32.6477V38.5H75.3611V32.8068C75.3611 32.2159 75.2001 31.7879 74.8781 31.5227C74.5561 31.2576 74.1717 31.125 73.7247 31.125C73.1717 31.125 72.7417 31.2955 72.4349 31.6364C72.1281 31.9735 71.9747 32.4072 71.9747 32.9375V38.5H70.2815V32.6989C70.2815 32.2254 70.1338 31.8447 69.8383 31.5568C69.5429 31.2689 69.1584 31.125 68.6849 31.125C68.363 31.125 68.0656 31.2102 67.7929 31.3807C67.5239 31.5473 67.3061 31.7803 67.1395 32.0795C66.9766 32.3788 66.8952 32.7254 66.8952 33.1193V38.5H65.1963ZM82.9223 38.6761C82.0624 38.6761 81.3219 38.4924 80.7007 38.125C80.0833 37.7538 79.606 37.233 79.2689 36.5625C78.9355 35.8883 78.7689 35.0985 78.7689 34.1932C78.7689 33.2992 78.9355 32.5114 79.2689 31.8295C79.606 31.1477 80.0757 30.6155 80.678 30.233C81.284 29.8504 81.9924 29.6591 82.803 29.6591C83.2954 29.6591 83.7727 29.7405 84.2348 29.9034C84.6969 30.0663 85.1117 30.322 85.4791 30.6705C85.8465 31.0189 86.1363 31.4716 86.3484 32.0284C86.5605 32.5814 86.6666 33.2538 86.6666 34.0455V34.6477H79.7291V33.375H85.0018C85.0018 32.928 84.9109 32.5322 84.7291 32.1875C84.5473 31.839 84.2916 31.5644 83.9621 31.3636C83.6363 31.1629 83.2537 31.0625 82.8143 31.0625C82.3371 31.0625 81.9204 31.1799 81.5643 31.4148C81.2121 31.6458 80.9393 31.9489 80.7461 32.3239C80.5568 32.6951 80.4621 33.0985 80.4621 33.5341V34.5284C80.4621 35.1117 80.5643 35.608 80.7689 36.017C80.9772 36.4261 81.267 36.7386 81.6382 36.9545C82.0094 37.1667 82.4431 37.2727 82.9393 37.2727C83.2613 37.2727 83.5549 37.2273 83.82 37.1364C84.0852 37.0417 84.3143 36.9015 84.5075 36.7159C84.7007 36.5303 84.8484 36.3011 84.9507 36.0284L86.5586 36.3182C86.4299 36.7917 86.1988 37.2064 85.8655 37.5625C85.5359 37.9148 85.1211 38.1894 84.6211 38.3864C84.1249 38.5795 83.5586 38.6761 82.9223 38.6761ZM102.678 32.6818C102.678 33.9242 102.451 34.9924 101.996 35.8864C101.542 36.7765 100.919 37.4621 100.127 37.9432C99.3392 38.4205 98.4434 38.6591 97.4396 38.6591C96.432 38.6591 95.5324 38.4205 94.7407 37.9432C93.9529 37.4621 93.3316 36.7746 92.8771 35.8807C92.4226 34.9867 92.1953 33.9205 92.1953 32.6818C92.1953 31.4394 92.4226 30.3731 92.8771 29.483C93.3316 28.589 93.9529 27.9034 94.7407 27.4261C95.5324 26.9451 96.432 26.7045 97.4396 26.7045C98.4434 26.7045 99.3392 26.9451 100.127 27.4261C100.919 27.9034 101.542 28.589 101.996 29.483C102.451 30.3731 102.678 31.4394 102.678 32.6818ZM100.94 32.6818C100.94 31.7348 100.786 30.9375 100.479 30.2898C100.176 29.6383 99.7597 29.1458 99.2294 28.8125C98.7029 28.4754 98.1063 28.3068 97.4396 28.3068C96.7691 28.3068 96.1707 28.4754 95.6441 28.8125C95.1176 29.1458 94.701 29.6383 94.3941 30.2898C94.0911 30.9375 93.9396 31.7348 93.9396 32.6818C93.9396 33.6288 94.0911 34.428 94.3941 35.0795C94.701 35.7273 95.1176 36.2197 95.6441 36.5568C96.1707 36.8902 96.7691 37.0568 97.4396 37.0568C98.1063 37.0568 98.7029 36.8902 99.2294 36.5568C99.7597 36.2197 100.176 35.7273 100.479 35.0795C100.786 34.428 100.94 33.6288 100.94 32.6818ZM108.708 29.7727V31.1364H103.776V29.7727H108.708ZM105.129 38.5V28.7614C105.129 28.2159 105.248 27.7633 105.487 27.4034C105.725 27.0398 106.042 26.7689 106.435 26.5909C106.829 26.4091 107.257 26.3182 107.72 26.3182C108.06 26.3182 108.352 26.3466 108.595 26.4034C108.837 26.4564 109.017 26.5057 109.134 26.5511L108.737 27.9261C108.657 27.9034 108.555 27.8769 108.43 27.8466C108.305 27.8125 108.153 27.7955 107.975 27.7955C107.562 27.7955 107.267 27.8977 107.089 28.1023C106.915 28.3068 106.828 28.6023 106.828 28.9886V38.5H105.129ZM114.438 29.7727V31.1364H109.507V29.7727H114.438ZM110.859 38.5V28.7614C110.859 28.2159 110.978 27.7633 111.217 27.4034C111.456 27.0398 111.772 26.7689 112.166 26.5909C112.56 26.4091 112.988 26.3182 113.45 26.3182C113.791 26.3182 114.082 26.3466 114.325 26.4034C114.567 26.4564 114.747 26.5057 114.865 26.5511L114.467 27.9261C114.387 27.9034 114.285 27.8769 114.16 27.8466C114.035 27.8125 113.884 27.7955 113.706 27.7955C113.293 27.7955 112.997 27.8977 112.819 28.1023C112.645 28.3068 112.558 28.6023 112.558 28.9886V38.5H110.859Z" fill="#0A0D14"/>
<g filter="url(#filter1_d_3281_20095)">
<path d="M272 26.5C272 22.0817 275.582 18.5 280 18.5H330C334.418 18.5 338 22.0817 338 26.5V39.5C338 43.9183 334.418 47.5 330 47.5H280C275.582 47.5 272 43.9183 272 39.5V26.5Z" fill="white"/>
<path d="M272.5 26.5C272.5 22.3579 275.858 19 280 19H330C334.142 19 337.5 22.3579 337.5 26.5V39.5C337.5 43.6421 334.142 47 330 47H280C275.858 47 272.5 43.6421 272.5 39.5V26.5Z" stroke="#E2E4E9"/>
<path d="M288.962 30.9929C288.909 30.5223 288.69 30.1577 288.306 29.8991C287.921 29.6373 287.437 29.5064 286.854 29.5064C286.436 29.5064 286.075 29.5727 285.77 29.7053C285.465 29.8345 285.228 30.0135 285.059 30.2422C284.894 30.4676 284.811 30.7244 284.811 31.0128C284.811 31.2547 284.867 31.4635 284.98 31.6392C285.096 31.8149 285.247 31.9624 285.432 32.0817C285.621 32.1977 285.823 32.2955 286.039 32.375C286.254 32.4512 286.461 32.5142 286.66 32.5639L287.654 32.8224C287.979 32.902 288.312 33.0097 288.654 33.1456C288.995 33.2815 289.312 33.4605 289.603 33.6825C289.895 33.9046 290.13 34.1797 290.309 34.5078C290.492 34.8359 290.583 35.2287 290.583 35.6861C290.583 36.2628 290.434 36.7749 290.135 37.2223C289.84 37.6697 289.411 38.0227 288.848 38.2812C288.287 38.5398 287.61 38.669 286.814 38.669C286.052 38.669 285.392 38.5481 284.836 38.3061C284.279 38.0642 283.843 37.7211 283.528 37.277C283.213 36.8295 283.039 36.2992 283.006 35.6861H284.547C284.577 36.054 284.696 36.3606 284.905 36.6058C285.117 36.8478 285.387 37.0284 285.716 37.1477C286.047 37.2637 286.41 37.3217 286.804 37.3217C287.238 37.3217 287.625 37.2538 287.963 37.1179C288.304 36.9787 288.573 36.7865 288.768 36.5412C288.964 36.2926 289.061 36.0026 289.061 35.6712C289.061 35.3696 288.975 35.1226 288.803 34.9304C288.634 34.7382 288.403 34.5791 288.112 34.4531C287.823 34.3272 287.497 34.2161 287.132 34.12L285.929 33.7919C285.114 33.5698 284.468 33.2434 283.99 32.8125C283.516 32.3816 283.279 31.8116 283.279 31.1023C283.279 30.5156 283.439 30.0036 283.757 29.5661C284.075 29.1286 284.506 28.7888 285.049 28.5469C285.593 28.3016 286.206 28.179 286.889 28.179C287.578 28.179 288.186 28.3 288.713 28.5419C289.244 28.7839 289.661 29.117 289.966 29.5412C290.271 29.9621 290.43 30.446 290.443 30.9929H288.962ZM295.506 38.6541C294.754 38.6541 294.106 38.4934 293.562 38.1719C293.022 37.8471 292.605 37.3913 292.31 36.8047C292.018 36.2147 291.872 35.5237 291.872 34.7315C291.872 33.9493 292.018 33.2599 292.31 32.6634C292.605 32.0668 293.016 31.6011 293.543 31.2663C294.073 30.9316 294.693 30.7642 295.402 30.7642C295.833 30.7642 296.25 30.8355 296.655 30.978C297.059 31.1205 297.422 31.3442 297.744 31.6491C298.065 31.9541 298.319 32.3501 298.504 32.8374C298.69 33.3213 298.783 33.9096 298.783 34.6023V35.1293H292.712V34.0156H297.326C297.326 33.6245 297.246 33.2782 297.087 32.9766C296.928 32.6716 296.704 32.4313 296.416 32.2557C296.131 32.08 295.796 31.9922 295.412 31.9922C294.994 31.9922 294.63 32.0949 294.318 32.3004C294.01 32.5026 293.771 32.7678 293.602 33.0959C293.436 33.4207 293.354 33.7737 293.354 34.1548V35.0249C293.354 35.5353 293.443 35.9695 293.622 36.3274C293.804 36.6854 294.058 36.9588 294.383 37.1477C294.708 37.3333 295.087 37.4261 295.521 37.4261C295.803 37.4261 296.06 37.3864 296.292 37.3068C296.524 37.224 296.724 37.1013 296.893 36.9389C297.062 36.7765 297.192 36.576 297.281 36.3374L298.688 36.5909C298.575 37.0052 298.373 37.3681 298.082 37.6797C297.793 37.9879 297.43 38.2282 296.993 38.4006C296.559 38.5696 296.063 38.6541 295.506 38.6541ZM303.639 38.6541C302.887 38.6541 302.239 38.4934 301.695 38.1719C301.155 37.8471 300.737 37.3913 300.442 36.8047C300.151 36.2147 300.005 35.5237 300.005 34.7315C300.005 33.9493 300.151 33.2599 300.442 32.6634C300.737 32.0668 301.148 31.6011 301.675 31.2663C302.206 30.9316 302.825 30.7642 303.535 30.7642C303.966 30.7642 304.383 30.8355 304.788 30.978C305.192 31.1205 305.555 31.3442 305.876 31.6491C306.198 31.9541 306.451 32.3501 306.637 32.8374C306.823 33.3213 306.915 33.9096 306.915 34.6023V35.1293H300.845V34.0156H305.459C305.459 33.6245 305.379 33.2782 305.22 32.9766C305.061 32.6716 304.837 32.4313 304.549 32.2557C304.264 32.08 303.929 31.9922 303.545 31.9922C303.127 31.9922 302.762 32.0949 302.451 32.3004C302.143 32.5026 301.904 32.7678 301.735 33.0959C301.569 33.4207 301.486 33.7737 301.486 34.1548V35.0249C301.486 35.5353 301.576 35.9695 301.755 36.3274C301.937 36.6854 302.191 36.9588 302.516 37.1477C302.84 37.3333 303.22 37.4261 303.654 37.4261C303.936 37.4261 304.193 37.3864 304.425 37.3068C304.657 37.224 304.857 37.1013 305.026 36.9389C305.195 36.7765 305.325 36.576 305.414 36.3374L306.821 36.5909C306.708 37.0052 306.506 37.3681 306.214 37.6797C305.926 37.9879 305.563 38.2282 305.126 38.4006C304.691 38.5696 304.196 38.6541 303.639 38.6541ZM313.081 38.5H311.451L315.115 28.3182H316.889L320.554 38.5H318.923L316.044 30.1676H315.965L313.081 38.5ZM313.355 34.5128H318.644V35.8054H313.355V34.5128ZM323.307 28.3182V38.5H321.821V28.3182H323.307ZM326.709 28.3182V38.5H325.223V28.3182H326.709Z" fill="#525866"/>
</g>
<g clipPath="url(#clip0_3281_20095)">
<mask id="path-7-inside-1_3281_20095" fill="white">
<path d="M18 65H338V225H18V65Z"/>
</mask>
<path d="M18 65H338V225H18V65Z" fill="white"/>
<path d="M171.178 146.727V170H167.655V150.25H167.518L161.95 153.886V150.523L167.757 146.727H171.178ZM185.575 170.386C183.78 170.379 182.246 169.905 180.973 168.966C179.7 168.027 178.727 166.659 178.053 164.864C177.378 163.068 177.041 160.905 177.041 158.375C177.041 155.852 177.378 153.697 178.053 151.909C178.734 150.121 179.712 148.758 180.984 147.818C182.265 146.879 183.795 146.409 185.575 146.409C187.356 146.409 188.882 146.883 190.155 147.83C191.428 148.769 192.401 150.133 193.075 151.92C193.757 153.701 194.098 155.852 194.098 158.375C194.098 160.913 193.761 163.08 193.087 164.875C192.412 166.663 191.439 168.03 190.166 168.977C188.893 169.917 187.363 170.386 185.575 170.386ZM185.575 167.352C187.151 167.352 188.382 166.583 189.268 165.045C190.162 163.508 190.609 161.284 190.609 158.375C190.609 156.443 190.405 154.811 189.996 153.477C189.594 152.136 189.015 151.121 188.257 150.432C187.507 149.735 186.613 149.386 185.575 149.386C184.007 149.386 182.776 150.159 181.882 151.705C180.988 153.25 180.537 155.473 180.53 158.375C180.53 160.314 180.731 161.955 181.132 163.295C181.541 164.629 182.121 165.64 182.871 166.33C183.621 167.011 184.522 167.352 185.575 167.352Z" fill="#0A0D14"/>
<path d="M152.821 189.636C152.821 190.568 152.65 191.369 152.31 192.04C151.969 192.707 151.501 193.222 150.908 193.582C150.317 193.94 149.645 194.119 148.892 194.119C148.136 194.119 147.462 193.94 146.868 193.582C146.277 193.222 145.811 192.706 145.47 192.036C145.129 191.365 144.959 190.565 144.959 189.636C144.959 188.705 145.129 187.905 145.47 187.237C145.811 186.567 146.277 186.053 146.868 185.695C147.462 185.334 148.136 185.153 148.892 185.153C149.645 185.153 150.317 185.334 150.908 185.695C151.501 186.053 151.969 186.567 152.31 187.237C152.65 187.905 152.821 188.705 152.821 189.636ZM151.517 189.636C151.517 188.926 151.402 188.328 151.172 187.842C150.945 187.354 150.632 186.984 150.234 186.734C149.839 186.482 149.392 186.355 148.892 186.355C148.389 186.355 147.94 186.482 147.545 186.734C147.15 186.984 146.838 187.354 146.608 187.842C146.381 188.328 146.267 188.926 146.267 189.636C146.267 190.347 146.381 190.946 146.608 191.435C146.838 191.92 147.15 192.29 147.545 192.543C147.94 192.793 148.389 192.918 148.892 192.918C149.392 192.918 149.839 192.793 150.234 192.543C150.632 192.29 150.945 191.92 151.172 191.435C151.402 190.946 151.517 190.347 151.517 189.636ZM160.555 185.273H161.876V191.013C161.876 191.624 161.732 192.165 161.445 192.636C161.159 193.105 160.755 193.474 160.235 193.744C159.715 194.011 159.106 194.145 158.407 194.145C157.711 194.145 157.103 194.011 156.583 193.744C156.063 193.474 155.66 193.105 155.373 192.636C155.086 192.165 154.943 191.624 154.943 191.013V185.273H156.259V190.906C156.259 191.301 156.346 191.652 156.519 191.959C156.695 192.266 156.944 192.507 157.265 192.683C157.586 192.857 157.967 192.943 158.407 192.943C158.85 192.943 159.232 192.857 159.553 192.683C159.877 192.507 160.124 192.266 160.295 191.959C160.468 191.652 160.555 191.301 160.555 190.906V185.273ZM163.84 186.406V185.273H170.594V186.406H167.871V194H166.559V186.406H163.84ZM183.803 189.636C183.803 190.568 183.633 191.369 183.292 192.04C182.951 192.707 182.484 193.222 181.89 193.582C181.299 193.94 180.627 194.119 179.874 194.119C179.119 194.119 178.444 193.94 177.85 193.582C177.259 193.222 176.794 192.706 176.453 192.036C176.112 191.365 175.941 190.565 175.941 189.636C175.941 188.705 176.112 187.905 176.453 187.237C176.794 186.567 177.259 186.053 177.85 185.695C178.444 185.334 179.119 185.153 179.874 185.153C180.627 185.153 181.299 185.334 181.89 185.695C182.484 186.053 182.951 186.567 183.292 187.237C183.633 187.905 183.803 188.705 183.803 189.636ZM182.499 189.636C182.499 188.926 182.384 188.328 182.154 187.842C181.927 187.354 181.615 186.984 181.217 186.734C180.822 186.482 180.374 186.355 179.874 186.355C179.372 186.355 178.923 186.482 178.528 186.734C178.133 186.984 177.82 187.354 177.59 187.842C177.363 188.328 177.249 188.926 177.249 189.636C177.249 190.347 177.363 190.946 177.59 191.435C177.82 191.92 178.133 192.29 178.528 192.543C178.923 192.793 179.372 192.918 179.874 192.918C180.374 192.918 180.822 192.793 181.217 192.543C181.615 192.29 181.927 191.92 182.154 191.435C182.384 190.946 182.499 190.347 182.499 189.636ZM185.925 194V185.273H191.337V186.406H187.242V189.065H190.949V190.195H187.242V194H185.925ZM196.973 194V193.045L199.926 189.986C200.241 189.653 200.501 189.362 200.706 189.112C200.913 188.859 201.068 188.619 201.17 188.392C201.273 188.165 201.324 187.923 201.324 187.668C201.324 187.378 201.256 187.128 201.119 186.918C200.983 186.705 200.797 186.541 200.561 186.428C200.325 186.311 200.059 186.253 199.764 186.253C199.452 186.253 199.179 186.317 198.946 186.445C198.713 186.572 198.534 186.753 198.409 186.986C198.284 187.219 198.221 187.491 198.221 187.804H196.964C196.964 187.273 197.086 186.808 197.331 186.411C197.575 186.013 197.91 185.705 198.336 185.486C198.763 185.264 199.247 185.153 199.79 185.153C200.338 185.153 200.821 185.263 201.238 185.482C201.659 185.697 201.987 185.993 202.223 186.368C202.459 186.74 202.577 187.161 202.577 187.629C202.577 187.953 202.515 188.27 202.393 188.58C202.274 188.889 202.065 189.234 201.767 189.615C201.469 189.993 201.054 190.452 200.523 190.991L198.788 192.807V192.871H202.717V194H196.973ZM207.851 194.145C207.177 194.142 206.602 193.964 206.125 193.612C205.647 193.26 205.282 192.747 205.03 192.074C204.777 191.401 204.65 190.589 204.65 189.641C204.65 188.695 204.777 187.886 205.03 187.216C205.285 186.545 205.652 186.034 206.129 185.682C206.609 185.33 207.183 185.153 207.851 185.153C208.518 185.153 209.091 185.331 209.568 185.686C210.045 186.038 210.41 186.55 210.663 187.22C210.919 187.888 211.047 188.695 211.047 189.641C211.047 190.592 210.92 191.405 210.667 192.078C210.414 192.749 210.049 193.261 209.572 193.616C209.095 193.969 208.521 194.145 207.851 194.145ZM207.851 193.007C208.441 193.007 208.903 192.719 209.236 192.142C209.571 191.565 209.738 190.732 209.738 189.641C209.738 188.916 209.662 188.304 209.508 187.804C209.358 187.301 209.14 186.92 208.856 186.662C208.575 186.401 208.24 186.27 207.851 186.27C207.263 186.27 206.801 186.56 206.466 187.139C206.13 187.719 205.961 188.553 205.959 189.641C205.959 190.368 206.034 190.983 206.184 191.486C206.338 191.986 206.555 192.365 206.836 192.624C207.118 192.879 207.456 193.007 207.851 193.007Z" fill="#525866"/>
<path d="M76 198C76 184.605 78.6383 171.341 83.7643 158.966C88.8903 146.591 96.4035 135.347 105.875 125.875C115.347 116.404 126.591 108.89 138.966 103.764C151.342 98.6383 164.605 96 178 96C191.395 96 204.659 98.6383 217.034 103.764C229.409 108.89 240.653 116.404 250.125 125.875C259.596 135.347 267.11 146.591 272.236 158.966C277.362 171.342 280 184.605 280 198H259.6C259.6 187.284 257.489 176.673 253.389 166.773C249.288 156.873 243.277 147.877 235.7 140.3C228.123 132.723 219.127 126.712 209.227 122.611C199.327 118.511 188.716 116.4 178 116.4C167.284 116.4 156.673 118.511 146.773 122.611C136.873 126.712 127.877 132.723 120.3 140.3C112.723 147.877 106.712 156.873 102.611 166.773C98.5107 176.673 96.4 187.284 96.4 198H76Z" fill="#E2E4E9"/>
<path d="M76 198C76 170.948 86.7464 145.004 105.875 125.875C125.004 106.746 150.948 96 178 96V116.4C156.358 116.4 135.603 124.997 120.3 140.3C104.997 155.603 96.4 176.358 96.4 198H76Z" fill="#FF5F4A"/>
</g>
<path d="M18 66H338V64H18V66ZM338 224H18V226H338V224Z" fill="#E2E4E9" mask="url(#path-7-inside-1_3281_20095)"/>
<path d="M28 258.5C23.8578 258.5 20.5 255.142 20.5 251C20.5 246.858 23.8578 243.5 28 243.5C32.1423 243.5 35.5 246.858 35.5 251C35.5 255.142 32.1423 258.5 28 258.5ZM28.75 251V247.25H27.25V252.5H31.75V251H28.75Z" fill="#F2AE40"/>
<path d="M47.1307 245.818H48.3636V253.097C48.3636 253.746 48.2443 254.298 48.0057 254.752C47.767 255.206 47.4306 255.551 46.9964 255.786C46.5623 256.022 46.0502 256.139 45.4602 256.139C44.9034 256.139 44.4079 256.038 43.9737 255.836C43.5395 255.63 43.1982 255.339 42.9496 254.961C42.701 254.583 42.5767 254.134 42.5767 253.614H43.7898C43.7898 253.902 43.861 254.154 44.0036 254.369C44.1494 254.581 44.3482 254.747 44.6001 254.866C44.852 254.986 45.1387 255.045 45.4602 255.045C45.8149 255.045 46.1165 254.971 46.3651 254.822C46.6136 254.673 46.8026 254.454 46.9318 254.165C47.0644 253.874 47.1307 253.518 47.1307 253.097V245.818ZM55.4039 252.878V248.364H56.5772V256H55.4039V254.707H55.3244C55.1454 255.095 54.867 255.425 54.4892 255.697C54.1113 255.965 53.634 256.099 53.0573 256.099C52.5801 256.099 52.1558 255.995 51.7846 255.786C51.4134 255.574 51.1217 255.256 50.9096 254.832C50.6975 254.404 50.5914 253.866 50.5914 253.216V248.364H51.7647V253.136C51.7647 253.693 51.9205 254.137 52.2321 254.469C52.5469 254.8 52.948 254.966 53.4352 254.966C53.7268 254.966 54.0235 254.891 54.3251 254.742C54.63 254.593 54.8852 254.364 55.0907 254.056C55.2995 253.748 55.4039 253.355 55.4039 252.878ZM59.8155 245.818V256H58.6422V245.818H59.8155ZM62.6361 258.864C62.4373 258.864 62.26 258.847 62.1042 258.814C61.9484 258.784 61.8407 258.754 61.781 258.724L62.0793 257.69C62.3644 257.763 62.6163 257.79 62.835 257.77C63.0538 257.75 63.2476 257.652 63.4167 257.477C63.589 257.304 63.7465 257.024 63.889 256.636L64.1077 256.04L61.2839 248.364H62.5566L64.6645 254.449H64.7441L66.852 248.364H68.1248L64.8833 257.114C64.7375 257.508 64.5568 257.835 64.3414 258.093C64.126 258.355 63.8757 258.549 63.5907 258.675C63.309 258.801 62.9908 258.864 62.6361 258.864ZM77.0026 245.818V256H75.7696V247.111H75.71L73.2242 248.761V247.509L75.7696 245.818H77.0026ZM83.0287 256.139C82.4453 256.139 81.92 256.023 81.4527 255.791C80.9853 255.559 80.6108 255.241 80.3291 254.837C80.0474 254.432 79.8933 253.972 79.8667 253.455H81.0599C81.1063 253.915 81.3151 254.296 81.6863 254.598C82.0609 254.896 82.5083 255.045 83.0287 255.045C83.4463 255.045 83.8175 254.948 84.1423 254.752C84.4704 254.557 84.7273 254.288 84.9129 253.947C85.1018 253.602 85.1963 253.213 85.1963 252.778C85.1963 252.334 85.0985 251.938 84.903 251.59C84.7107 251.239 84.4456 250.962 84.1075 250.76C83.7694 250.558 83.3833 250.455 82.9491 250.452C82.6376 250.448 82.3177 250.496 81.9896 250.596C81.6615 250.692 81.3914 250.816 81.1792 250.969L80.0258 250.83L80.6423 245.818H85.9321V246.912H81.6764L81.3184 249.915H81.3781C81.5869 249.749 81.8487 249.612 82.1636 249.502C82.4785 249.393 82.8066 249.338 83.148 249.338C83.7711 249.338 84.3263 249.487 84.8135 249.786C85.304 250.08 85.6885 250.485 85.9669 250.999C86.2486 251.512 86.3895 252.099 86.3895 252.759C86.3895 253.408 86.2436 253.988 85.952 254.499C85.6636 255.006 85.2659 255.407 84.7588 255.702C84.2517 255.993 83.675 256.139 83.0287 256.139ZM89.6675 254.608L89.588 255.145C89.5316 255.523 89.4454 255.927 89.3294 256.358C89.2167 256.789 89.0991 257.195 88.9765 257.576C88.8538 257.957 88.7527 258.26 88.6732 258.486H87.7783C87.8214 258.274 87.8777 257.994 87.9473 257.646C88.0169 257.298 88.0865 256.908 88.1561 256.477C88.2291 256.05 88.2887 255.612 88.3351 255.165L88.3948 254.608H89.6675ZM95.5909 256V255.105L98.9517 251.426C99.3462 250.995 99.671 250.621 99.9262 250.303C100.181 249.981 100.37 249.679 100.493 249.398C100.619 249.113 100.682 248.814 100.682 248.503C100.682 248.145 100.596 247.835 100.423 247.573C100.254 247.311 100.022 247.109 99.7273 246.967C99.4323 246.824 99.1009 246.753 98.733 246.753C98.3419 246.753 98.0005 246.834 97.7088 246.996C97.4205 247.156 97.1968 247.379 97.0377 247.668C96.8819 247.956 96.804 248.294 96.804 248.682H95.6307C95.6307 248.085 95.7683 247.562 96.0434 247.111C96.3185 246.66 96.693 246.309 97.1669 246.057C97.6442 245.805 98.1795 245.679 98.7728 245.679C99.3694 245.679 99.898 245.805 100.359 246.057C100.819 246.309 101.181 246.648 101.443 247.076C101.704 247.504 101.835 247.979 101.835 248.503C101.835 248.877 101.767 249.244 101.631 249.602C101.499 249.956 101.267 250.352 100.935 250.79C100.607 251.224 100.152 251.754 99.5682 252.381L97.2813 254.827V254.906H102.014V256H95.5909ZM107.305 256.139C106.555 256.139 105.917 255.935 105.39 255.528C104.863 255.117 104.461 254.522 104.182 253.743C103.904 252.961 103.765 252.016 103.765 250.909C103.765 249.809 103.904 248.869 104.182 248.09C104.464 247.308 104.868 246.711 105.395 246.3C105.926 245.886 106.562 245.679 107.305 245.679C108.047 245.679 108.682 245.886 109.209 246.3C109.739 246.711 110.143 247.308 110.422 248.09C110.703 248.869 110.844 249.809 110.844 250.909C110.844 252.016 110.705 252.961 110.427 253.743C110.148 254.522 109.746 255.117 109.219 255.528C108.692 255.935 108.054 256.139 107.305 256.139ZM107.305 255.045C108.047 255.045 108.624 254.687 109.035 253.972C109.446 253.256 109.651 252.235 109.651 250.909C109.651 250.027 109.557 249.277 109.368 248.657C109.182 248.037 108.914 247.565 108.562 247.24C108.214 246.915 107.795 246.753 107.305 246.753C106.569 246.753 105.994 247.116 105.579 247.842C105.165 248.564 104.958 249.587 104.958 250.909C104.958 251.791 105.051 252.54 105.236 253.156C105.422 253.773 105.689 254.242 106.037 254.563C106.388 254.885 106.811 255.045 107.305 255.045ZM116.229 245.818V256H114.996V247.111H114.936L112.451 248.761V247.509L114.996 245.818H116.229ZM122.315 245.679C122.732 245.682 123.15 245.762 123.568 245.918C123.985 246.073 124.366 246.332 124.711 246.693C125.056 247.051 125.333 247.54 125.541 248.16C125.75 248.78 125.855 249.557 125.855 250.491C125.855 251.396 125.768 252.2 125.596 252.903C125.427 253.602 125.182 254.192 124.86 254.673C124.542 255.153 124.154 255.518 123.697 255.766C123.243 256.015 122.729 256.139 122.156 256.139C121.586 256.139 121.077 256.027 120.629 255.801C120.185 255.572 119.821 255.256 119.536 254.852C119.254 254.444 119.073 253.972 118.994 253.435H120.207C120.316 253.902 120.533 254.288 120.858 254.593C121.186 254.895 121.619 255.045 122.156 255.045C122.941 255.045 123.561 254.702 124.015 254.016C124.472 253.33 124.701 252.361 124.701 251.108H124.622C124.436 251.386 124.216 251.627 123.96 251.829C123.705 252.031 123.422 252.187 123.11 252.296C122.799 252.406 122.467 252.46 122.116 252.46C121.533 252.46 120.997 252.316 120.51 252.028C120.026 251.736 119.638 251.337 119.347 250.83C119.058 250.319 118.914 249.736 118.914 249.08C118.914 248.456 119.053 247.886 119.332 247.369C119.614 246.849 120.008 246.435 120.515 246.126C121.025 245.818 121.625 245.669 122.315 245.679ZM122.315 246.773C121.897 246.773 121.521 246.877 121.186 247.086C120.855 247.291 120.591 247.57 120.396 247.921C120.204 248.269 120.107 248.655 120.107 249.08C120.107 249.504 120.2 249.89 120.386 250.238C120.575 250.583 120.832 250.858 121.156 251.063C121.485 251.265 121.857 251.366 122.275 251.366C122.59 251.366 122.883 251.305 123.155 251.183C123.427 251.057 123.664 250.886 123.866 250.67C124.071 250.452 124.232 250.205 124.348 249.93C124.464 249.651 124.522 249.361 124.522 249.06C124.522 248.662 124.426 248.289 124.234 247.941C124.045 247.593 123.783 247.311 123.448 247.096C123.117 246.88 122.739 246.773 122.315 246.773Z" fill="#0A0D14"/>
<path d="M132.278 251.318C132.278 250.244 132.418 249.257 132.696 248.357C132.977 247.453 133.378 246.622 133.898 245.864H134.784C134.58 246.145 134.388 246.491 134.209 246.903C134.033 247.312 133.878 247.763 133.744 248.254C133.611 248.743 133.506 249.249 133.429 249.771C133.355 250.294 133.318 250.81 133.318 251.318C133.318 251.994 133.384 252.68 133.514 253.376C133.645 254.072 133.821 254.719 134.043 255.315C134.264 255.912 134.511 256.398 134.784 256.773H133.898C133.378 256.014 132.977 255.185 132.696 254.284C132.418 253.381 132.278 252.392 132.278 251.318ZM143.427 249H142.37C142.308 248.696 142.199 248.429 142.042 248.199C141.889 247.969 141.701 247.776 141.48 247.619C141.261 247.46 141.018 247.341 140.751 247.261C140.484 247.182 140.206 247.142 139.916 247.142C139.387 247.142 138.909 247.276 138.48 247.543C138.054 247.81 137.714 248.203 137.461 248.723C137.211 249.243 137.086 249.881 137.086 250.636C137.086 251.392 137.211 252.03 137.461 252.55C137.714 253.07 138.054 253.463 138.48 253.73C138.909 253.997 139.387 254.131 139.916 254.131C140.206 254.131 140.484 254.091 140.751 254.011C141.018 253.932 141.261 253.814 141.48 253.658C141.701 253.499 141.889 253.304 142.042 253.074C142.199 252.841 142.308 252.574 142.37 252.273H143.427C143.348 252.719 143.203 253.118 142.993 253.47C142.782 253.822 142.521 254.122 142.208 254.369C141.896 254.614 141.545 254.8 141.156 254.928C140.77 255.055 140.356 255.119 139.916 255.119C139.172 255.119 138.51 254.938 137.93 254.574C137.35 254.21 136.895 253.693 136.562 253.023C136.23 252.352 136.064 251.557 136.064 250.636C136.064 249.716 136.23 248.92 136.562 248.25C136.895 247.58 137.35 247.062 137.93 246.699C138.51 246.335 139.172 246.153 139.916 246.153C140.356 246.153 140.77 246.217 141.156 246.345C141.545 246.473 141.896 246.661 142.208 246.908C142.521 247.152 142.782 247.45 142.993 247.803C143.203 248.152 143.348 248.551 143.427 249ZM146.925 255.153C146.51 255.153 146.134 255.075 145.795 254.919C145.457 254.76 145.189 254.531 144.99 254.233C144.791 253.932 144.692 253.568 144.692 253.142C144.692 252.767 144.766 252.463 144.913 252.23C145.061 251.994 145.259 251.81 145.506 251.676C145.753 251.543 146.026 251.443 146.324 251.378C146.625 251.31 146.928 251.256 147.232 251.216C147.629 251.165 147.952 251.126 148.199 251.101C148.449 251.072 148.631 251.026 148.744 250.96C148.861 250.895 148.919 250.781 148.919 250.619V250.585C148.919 250.165 148.804 249.838 148.574 249.605C148.347 249.372 148.001 249.256 147.538 249.256C147.058 249.256 146.682 249.361 146.409 249.571C146.136 249.781 145.945 250.006 145.834 250.244L144.879 249.903C145.05 249.506 145.277 249.196 145.561 248.974C145.848 248.75 146.161 248.594 146.499 248.506C146.839 248.415 147.175 248.369 147.504 248.369C147.714 248.369 147.956 248.395 148.229 248.446C148.504 248.494 148.77 248.595 149.026 248.749C149.284 248.902 149.499 249.134 149.669 249.443C149.839 249.753 149.925 250.168 149.925 250.688V255H148.919V254.114H148.868C148.8 254.256 148.686 254.408 148.527 254.57C148.368 254.732 148.156 254.869 147.892 254.983C147.628 255.097 147.305 255.153 146.925 255.153ZM147.078 254.25C147.476 254.25 147.811 254.172 148.084 254.016C148.359 253.859 148.567 253.658 148.706 253.411C148.848 253.163 148.919 252.903 148.919 252.631V251.71C148.876 251.761 148.783 251.808 148.638 251.851C148.496 251.891 148.331 251.926 148.143 251.957C147.959 251.986 147.778 252.011 147.602 252.034C147.429 252.054 147.288 252.071 147.18 252.085C146.919 252.119 146.675 252.175 146.447 252.251C146.223 252.325 146.041 252.437 145.902 252.588C145.766 252.736 145.697 252.937 145.697 253.193C145.697 253.543 145.827 253.807 146.085 253.986C146.347 254.162 146.678 254.25 147.078 254.25ZM156.397 249.92L155.493 250.176C155.436 250.026 155.353 249.879 155.242 249.737C155.134 249.592 154.986 249.473 154.799 249.379C154.611 249.286 154.371 249.239 154.078 249.239C153.678 249.239 153.344 249.331 153.077 249.516C152.813 249.697 152.681 249.929 152.681 250.21C152.681 250.46 152.772 250.658 152.953 250.803C153.135 250.947 153.419 251.068 153.806 251.165L154.777 251.403C155.363 251.545 155.799 251.763 156.086 252.055C156.373 252.345 156.516 252.719 156.516 253.176C156.516 253.551 156.408 253.886 156.192 254.182C155.979 254.477 155.681 254.71 155.297 254.881C154.914 255.051 154.468 255.136 153.959 255.136C153.292 255.136 152.739 254.991 152.301 254.702C151.864 254.412 151.587 253.989 151.471 253.432L152.425 253.193C152.516 253.545 152.688 253.81 152.941 253.986C153.196 254.162 153.53 254.25 153.942 254.25C154.411 254.25 154.783 254.151 155.059 253.952C155.337 253.75 155.476 253.509 155.476 253.227C155.476 253 155.397 252.81 155.238 252.656C155.078 252.5 154.834 252.384 154.505 252.307L153.414 252.051C152.814 251.909 152.374 251.689 152.093 251.391C151.814 251.089 151.675 250.713 151.675 250.261C151.675 249.892 151.779 249.565 151.986 249.281C152.196 248.997 152.482 248.774 152.843 248.612C153.206 248.45 153.618 248.369 154.078 248.369C154.726 248.369 155.235 248.511 155.604 248.795C155.976 249.08 156.24 249.455 156.397 249.92ZM162.155 252.324V248.455H163.161V255H162.155V253.892H162.087C161.933 254.224 161.695 254.507 161.371 254.74C161.047 254.97 160.638 255.085 160.143 255.085C159.734 255.085 159.371 254.996 159.053 254.817C158.734 254.635 158.484 254.362 158.303 253.999C158.121 253.632 158.03 253.17 158.03 252.614V248.455H159.036V252.545C159.036 253.023 159.169 253.403 159.436 253.688C159.706 253.972 160.05 254.114 160.467 254.114C160.717 254.114 160.972 254.05 161.23 253.922C161.491 253.794 161.71 253.598 161.886 253.334C162.065 253.07 162.155 252.733 162.155 252.324ZM166.929 255.153C166.514 255.153 166.137 255.075 165.799 254.919C165.461 254.76 165.193 254.531 164.994 254.233C164.795 253.932 164.696 253.568 164.696 253.142C164.696 252.767 164.77 252.463 164.917 252.23C165.065 251.994 165.262 251.81 165.51 251.676C165.757 251.543 166.029 251.443 166.328 251.378C166.629 251.31 166.931 251.256 167.235 251.216C167.633 251.165 167.956 251.126 168.203 251.101C168.453 251.072 168.635 251.026 168.748 250.96C168.865 250.895 168.923 250.781 168.923 250.619V250.585C168.923 250.165 168.808 249.838 168.578 249.605C168.35 249.372 168.005 249.256 167.542 249.256C167.062 249.256 166.686 249.361 166.413 249.571C166.14 249.781 165.949 250.006 165.838 250.244L164.883 249.903C165.054 249.506 165.281 249.196 165.565 248.974C165.852 248.75 166.164 248.594 166.502 248.506C166.843 248.415 167.179 248.369 167.508 248.369C167.718 248.369 167.96 248.395 168.233 248.446C168.508 248.494 168.774 248.595 169.029 248.749C169.288 248.902 169.502 249.134 169.673 249.443C169.843 249.753 169.929 250.168 169.929 250.688V255H168.923V254.114H168.872C168.804 254.256 168.69 254.408 168.531 254.57C168.372 254.732 168.16 254.869 167.896 254.983C167.632 255.097 167.309 255.153 166.929 255.153ZM167.082 254.25C167.48 254.25 167.815 254.172 168.088 254.016C168.363 253.859 168.571 253.658 168.71 253.411C168.852 253.163 168.923 252.903 168.923 252.631V251.71C168.88 251.761 168.787 251.808 168.642 251.851C168.5 251.891 168.335 251.926 168.147 251.957C167.963 251.986 167.782 252.011 167.606 252.034C167.433 252.054 167.292 252.071 167.184 252.085C166.923 252.119 166.679 252.175 166.451 252.251C166.227 252.325 166.045 252.437 165.906 252.588C165.77 252.736 165.701 252.937 165.701 253.193C165.701 253.543 165.831 253.807 166.089 253.986C166.35 254.162 166.681 254.25 167.082 254.25ZM172.77 246.273V255H171.764V246.273H172.77ZM176.76 251.318C176.76 252.392 176.619 253.381 176.338 254.284C176.059 255.185 175.66 256.014 175.14 256.773H174.254C174.458 256.491 174.649 256.145 174.825 255.733C175.004 255.324 175.16 254.875 175.294 254.386C175.427 253.895 175.531 253.388 175.605 252.865C175.681 252.339 175.72 251.824 175.72 251.318C175.72 250.642 175.654 249.956 175.524 249.26C175.393 248.564 175.217 247.918 174.995 247.321C174.774 246.724 174.527 246.239 174.254 245.864H175.14C175.66 246.622 176.059 247.453 176.338 248.357C176.619 249.257 176.76 250.244 176.76 251.318Z" fill="#868C98"/>
<path d="M275 251C275 245.477 279.477 241 285 241H328C333.523 241 338 245.477 338 251C338 256.523 333.523 261 328 261H285C279.477 261 275 256.523 275 251Z" fill="#FBDFB1"/>
<path d="M284.015 255V246.273H287.126C287.805 246.273 288.368 246.396 288.814 246.643C289.26 246.891 289.594 247.229 289.815 247.658C290.037 248.084 290.148 248.564 290.148 249.098C290.148 249.635 290.035 250.118 289.811 250.547C289.589 250.973 289.254 251.311 288.805 251.561C288.359 251.808 287.798 251.932 287.122 251.932H284.983V250.815H287.003C287.432 250.815 287.78 250.741 288.047 250.594C288.314 250.443 288.51 250.239 288.635 249.98C288.76 249.722 288.822 249.428 288.822 249.098C288.822 248.768 288.76 248.476 288.635 248.22C288.51 247.964 288.312 247.764 288.042 247.619C287.775 247.474 287.423 247.402 286.986 247.402H285.332V255H284.015ZM294.328 255.132C293.683 255.132 293.128 254.994 292.662 254.719C292.199 254.44 291.841 254.05 291.588 253.547C291.338 253.041 291.213 252.449 291.213 251.77C291.213 251.099 291.338 250.509 291.588 249.997C291.841 249.486 292.193 249.087 292.645 248.8C293.099 248.513 293.631 248.369 294.238 248.369C294.608 248.369 294.966 248.43 295.312 248.553C295.659 248.675 295.97 248.866 296.246 249.128C296.521 249.389 296.738 249.729 296.898 250.146C297.057 250.561 297.136 251.065 297.136 251.659V252.111H291.933V251.156H295.888C295.888 250.821 295.819 250.524 295.683 250.266C295.547 250.004 295.355 249.798 295.108 249.648C294.863 249.497 294.577 249.422 294.247 249.422C293.889 249.422 293.577 249.51 293.309 249.686C293.045 249.859 292.841 250.087 292.696 250.368C292.554 250.646 292.483 250.949 292.483 251.276V252.021C292.483 252.459 292.559 252.831 292.713 253.138C292.869 253.445 293.086 253.679 293.365 253.841C293.643 254 293.969 254.08 294.341 254.08C294.582 254.08 294.802 254.045 295.001 253.977C295.2 253.906 295.372 253.801 295.517 253.662C295.662 253.523 295.773 253.351 295.849 253.146L297.055 253.364C296.959 253.719 296.785 254.03 296.535 254.297C296.288 254.561 295.977 254.767 295.602 254.915C295.23 255.06 294.805 255.132 294.328 255.132ZM299.824 251.114V255H298.55V248.455H299.773V249.52H299.854C300.004 249.173 300.24 248.895 300.561 248.685C300.885 248.474 301.293 248.369 301.784 248.369C302.23 248.369 302.621 248.463 302.956 248.651C303.291 248.835 303.551 249.111 303.736 249.477C303.921 249.844 304.013 250.297 304.013 250.837V255H302.739V250.99C302.739 250.516 302.615 250.145 302.368 249.878C302.121 249.608 301.781 249.473 301.35 249.473C301.054 249.473 300.791 249.537 300.561 249.665C300.334 249.793 300.154 249.98 300.02 250.227C299.889 250.472 299.824 250.767 299.824 251.114ZM308.172 255.128C307.644 255.128 307.172 254.993 306.757 254.723C306.345 254.45 306.021 254.062 305.786 253.56C305.553 253.054 305.436 252.447 305.436 251.74C305.436 251.033 305.554 250.428 305.79 249.925C306.029 249.422 306.355 249.037 306.77 248.77C307.185 248.503 307.655 248.369 308.181 248.369C308.587 248.369 308.914 248.438 309.161 248.574C309.411 248.707 309.604 248.864 309.74 249.043C309.879 249.222 309.987 249.379 310.064 249.516H310.141V246.273H311.415V255H310.171V253.982H310.064C309.987 254.121 309.877 254.28 309.732 254.459C309.59 254.638 309.394 254.794 309.144 254.928C308.894 255.061 308.57 255.128 308.172 255.128ZM308.453 254.041C308.82 254.041 309.129 253.945 309.382 253.751C309.638 253.555 309.831 253.284 309.962 252.938C310.095 252.591 310.162 252.187 310.162 251.727C310.162 251.273 310.097 250.875 309.966 250.534C309.835 250.193 309.644 249.928 309.391 249.737C309.138 249.547 308.825 249.452 308.453 249.452C308.07 249.452 307.75 249.551 307.494 249.75C307.239 249.949 307.046 250.22 306.915 250.564C306.787 250.908 306.723 251.295 306.723 251.727C306.723 252.165 306.789 252.558 306.919 252.908C307.05 253.257 307.243 253.534 307.499 253.739C307.757 253.94 308.075 254.041 308.453 254.041ZM313.233 255V248.455H314.508V255H313.233ZM313.877 247.445C313.655 247.445 313.465 247.371 313.306 247.223C313.15 247.072 313.072 246.893 313.072 246.686C313.072 246.476 313.15 246.297 313.306 246.149C313.465 245.999 313.655 245.923 313.877 245.923C314.099 245.923 314.287 245.999 314.444 246.149C314.603 246.297 314.682 246.476 314.682 246.686C314.682 246.893 314.603 247.072 314.444 247.223C314.287 247.371 314.099 247.445 313.877 247.445ZM317.496 251.114V255H316.222V248.455H317.445V249.52H317.526C317.676 249.173 317.912 248.895 318.233 248.685C318.557 248.474 318.965 248.369 319.456 248.369C319.902 248.369 320.293 248.463 320.628 248.651C320.963 248.835 321.223 249.111 321.408 249.477C321.593 249.844 321.685 250.297 321.685 250.837V255H320.411V250.99C320.411 250.516 320.287 250.145 320.04 249.878C319.793 249.608 319.453 249.473 319.021 249.473C318.726 249.473 318.463 249.537 318.233 249.665C318.006 249.793 317.825 249.98 317.692 250.227C317.561 250.472 317.496 250.767 317.496 251.114ZM326.138 257.591C325.618 257.591 325.171 257.523 324.796 257.386C324.423 257.25 324.119 257.07 323.884 256.845C323.648 256.621 323.472 256.375 323.355 256.108L324.45 255.656C324.527 255.781 324.629 255.913 324.757 256.053C324.888 256.195 325.064 256.315 325.286 256.415C325.51 256.514 325.798 256.564 326.151 256.564C326.634 256.564 327.033 256.446 327.348 256.21C327.664 255.977 327.821 255.605 327.821 255.094V253.807H327.74C327.664 253.946 327.553 254.101 327.408 254.271C327.266 254.442 327.07 254.589 326.82 254.714C326.57 254.839 326.244 254.902 325.844 254.902C325.327 254.902 324.861 254.781 324.446 254.54C324.034 254.295 323.708 253.936 323.466 253.462C323.227 252.984 323.108 252.398 323.108 251.702C323.108 251.006 323.226 250.409 323.462 249.912C323.7 249.415 324.027 249.034 324.442 248.77C324.857 248.503 325.327 248.369 325.852 248.369C326.259 248.369 326.587 248.438 326.837 248.574C327.087 248.707 327.281 248.864 327.421 249.043C327.563 249.222 327.672 249.379 327.749 249.516H327.843V248.455H329.091V255.145C329.091 255.707 328.96 256.169 328.699 256.53C328.438 256.891 328.084 257.158 327.638 257.331C327.195 257.504 326.695 257.591 326.138 257.591ZM326.125 253.845C326.492 253.845 326.801 253.76 327.054 253.589C327.31 253.416 327.503 253.169 327.634 252.848C327.767 252.524 327.834 252.136 327.834 251.685C327.834 251.244 327.769 250.857 327.638 250.521C327.507 250.186 327.316 249.925 327.063 249.737C326.81 249.547 326.497 249.452 326.125 249.452C325.742 249.452 325.422 249.551 325.166 249.75C324.911 249.946 324.718 250.213 324.587 250.551C324.459 250.889 324.395 251.267 324.395 251.685C324.395 252.114 324.46 252.49 324.591 252.814C324.722 253.138 324.915 253.391 325.171 253.572C325.429 253.754 325.747 253.845 326.125 253.845Z" fill="#693D11"/>
<line x1="18" y1="276.5" x2="338" y2="276.5" stroke="#E2E4E9"/>
<path d="M28 310.5C23.8578 310.5 20.5 307.142 20.5 303C20.5 298.858 23.8578 295.5 28 295.5C32.1423 295.5 35.5 298.858 35.5 303C35.5 307.142 32.1423 310.5 28 310.5ZM27.2523 306L32.5548 300.697L31.4943 299.636L27.2523 303.879L25.1305 301.757L24.07 302.818L27.2523 306Z" fill="#38C793"/>
<path d="M47.1307 297.818H48.3636V305.097C48.3636 305.746 48.2443 306.298 48.0057 306.752C47.767 307.206 47.4306 307.551 46.9964 307.786C46.5623 308.022 46.0502 308.139 45.4602 308.139C44.9034 308.139 44.4079 308.038 43.9737 307.836C43.5395 307.63 43.1982 307.339 42.9496 306.961C42.701 306.583 42.5767 306.134 42.5767 305.614H43.7898C43.7898 305.902 43.861 306.154 44.0036 306.369C44.1494 306.581 44.3482 306.747 44.6001 306.866C44.852 306.986 45.1387 307.045 45.4602 307.045C45.8149 307.045 46.1165 306.971 46.3651 306.822C46.6136 306.673 46.8026 306.454 46.9318 306.165C47.0644 305.874 47.1307 305.518 47.1307 305.097V297.818ZM55.4039 304.878V300.364H56.5772V308H55.4039V306.707H55.3244C55.1454 307.095 54.867 307.425 54.4892 307.697C54.1113 307.965 53.634 308.099 53.0573 308.099C52.5801 308.099 52.1558 307.995 51.7846 307.786C51.4134 307.574 51.1217 307.256 50.9096 306.832C50.6975 306.404 50.5914 305.866 50.5914 305.216V300.364H51.7647V305.136C51.7647 305.693 51.9205 306.137 52.2321 306.469C52.5469 306.8 52.948 306.966 53.4352 306.966C53.7268 306.966 54.0235 306.891 54.3251 306.742C54.63 306.593 54.8852 306.364 55.0907 306.056C55.2995 305.748 55.4039 305.355 55.4039 304.878ZM59.8155 297.818V308H58.6422V297.818H59.8155ZM62.6361 310.864C62.4373 310.864 62.26 310.847 62.1042 310.814C61.9484 310.784 61.8407 310.754 61.781 310.724L62.0793 309.69C62.3644 309.763 62.6163 309.79 62.835 309.77C63.0538 309.75 63.2476 309.652 63.4167 309.477C63.589 309.304 63.7465 309.024 63.889 308.636L64.1077 308.04L61.2839 300.364H62.5566L64.6645 306.449H64.7441L66.852 300.364H68.1248L64.8833 309.114C64.7375 309.508 64.5568 309.835 64.3414 310.093C64.126 310.355 63.8757 310.549 63.5907 310.675C63.309 310.801 62.9908 310.864 62.6361 310.864ZM77.0026 297.818V308H75.7696V299.111H75.71L73.2242 300.761V299.509L75.7696 297.818H77.0026ZM83.0287 308.139C82.4453 308.139 81.92 308.023 81.4527 307.791C80.9853 307.559 80.6108 307.241 80.3291 306.837C80.0474 306.432 79.8933 305.972 79.8667 305.455H81.0599C81.1063 305.915 81.3151 306.296 81.6863 306.598C82.0609 306.896 82.5083 307.045 83.0287 307.045C83.4463 307.045 83.8175 306.948 84.1423 306.752C84.4704 306.557 84.7273 306.288 84.9129 305.947C85.1018 305.602 85.1963 305.213 85.1963 304.778C85.1963 304.334 85.0985 303.938 84.903 303.59C84.7107 303.239 84.4456 302.962 84.1075 302.76C83.7694 302.558 83.3833 302.455 82.9491 302.452C82.6376 302.448 82.3177 302.496 81.9896 302.596C81.6615 302.692 81.3914 302.816 81.1792 302.969L80.0258 302.83L80.6423 297.818H85.9321V298.912H81.6764L81.3184 301.915H81.3781C81.5869 301.749 81.8487 301.612 82.1636 301.502C82.4785 301.393 82.8066 301.338 83.148 301.338C83.7711 301.338 84.3263 301.487 84.8135 301.786C85.304 302.08 85.6885 302.485 85.9669 302.999C86.2486 303.512 86.3895 304.099 86.3895 304.759C86.3895 305.408 86.2436 305.988 85.952 306.499C85.6636 307.006 85.2659 307.407 84.7588 307.702C84.2517 307.993 83.675 308.139 83.0287 308.139ZM89.6675 306.608L89.588 307.145C89.5316 307.523 89.4454 307.927 89.3294 308.358C89.2167 308.789 89.0991 309.195 88.9765 309.576C88.8538 309.957 88.7527 310.26 88.6732 310.486H87.7783C87.8214 310.274 87.8777 309.994 87.9473 309.646C88.0169 309.298 88.0865 308.908 88.1561 308.477C88.2291 308.05 88.2887 307.612 88.3351 307.165L88.3948 306.608H89.6675ZM95.5909 308V307.105L98.9517 303.426C99.3462 302.995 99.671 302.621 99.9262 302.303C100.181 301.981 100.37 301.679 100.493 301.398C100.619 301.113 100.682 300.814 100.682 300.503C100.682 300.145 100.596 299.835 100.423 299.573C100.254 299.311 100.022 299.109 99.7273 298.967C99.4323 298.824 99.1009 298.753 98.733 298.753C98.3419 298.753 98.0005 298.834 97.7088 298.996C97.4205 299.156 97.1968 299.379 97.0377 299.668C96.8819 299.956 96.804 300.294 96.804 300.682H95.6307C95.6307 300.085 95.7683 299.562 96.0434 299.111C96.3185 298.66 96.693 298.309 97.1669 298.057C97.6442 297.805 98.1795 297.679 98.7728 297.679C99.3694 297.679 99.898 297.805 100.359 298.057C100.819 298.309 101.181 298.648 101.443 299.076C101.704 299.504 101.835 299.979 101.835 300.503C101.835 300.877 101.767 301.244 101.631 301.602C101.499 301.956 101.267 302.352 100.935 302.79C100.607 303.224 100.152 303.754 99.5682 304.381L97.2813 306.827V306.906H102.014V308H95.5909ZM107.305 308.139C106.555 308.139 105.917 307.935 105.39 307.528C104.863 307.117 104.461 306.522 104.182 305.743C103.904 304.961 103.765 304.016 103.765 302.909C103.765 301.809 103.904 300.869 104.182 300.09C104.464 299.308 104.868 298.711 105.395 298.3C105.926 297.886 106.562 297.679 107.305 297.679C108.047 297.679 108.682 297.886 109.209 298.3C109.739 298.711 110.143 299.308 110.422 300.09C110.703 300.869 110.844 301.809 110.844 302.909C110.844 304.016 110.705 304.961 110.427 305.743C110.148 306.522 109.746 307.117 109.219 307.528C108.692 307.935 108.054 308.139 107.305 308.139ZM107.305 307.045C108.047 307.045 108.624 306.687 109.035 305.972C109.446 305.256 109.651 304.235 109.651 302.909C109.651 302.027 109.557 301.277 109.368 300.657C109.182 300.037 108.914 299.565 108.562 299.24C108.214 298.915 107.795 298.753 107.305 298.753C106.569 298.753 105.994 299.116 105.579 299.842C105.165 300.564 104.958 301.587 104.958 302.909C104.958 303.791 105.051 304.54 105.236 305.156C105.422 305.773 105.689 306.242 106.037 306.563C106.388 306.885 106.811 307.045 107.305 307.045ZM116.229 297.818V308H114.996V299.111H114.936L112.451 300.761V299.509L114.996 297.818H116.229ZM122.315 297.679C122.732 297.682 123.15 297.762 123.568 297.918C123.985 298.073 124.366 298.332 124.711 298.693C125.056 299.051 125.333 299.54 125.541 300.16C125.75 300.78 125.855 301.557 125.855 302.491C125.855 303.396 125.768 304.2 125.596 304.903C125.427 305.602 125.182 306.192 124.86 306.673C124.542 307.153 124.154 307.518 123.697 307.766C123.243 308.015 122.729 308.139 122.156 308.139C121.586 308.139 121.077 308.027 120.629 307.801C120.185 307.572 119.821 307.256 119.536 306.852C119.254 306.444 119.073 305.972 118.994 305.435H120.207C120.316 305.902 120.533 306.288 120.858 306.593C121.186 306.895 121.619 307.045 122.156 307.045C122.941 307.045 123.561 306.702 124.015 306.016C124.472 305.33 124.701 304.361 124.701 303.108H124.622C124.436 303.386 124.216 303.627 123.96 303.829C123.705 304.031 123.422 304.187 123.11 304.296C122.799 304.406 122.467 304.46 122.116 304.46C121.533 304.46 120.997 304.316 120.51 304.028C120.026 303.736 119.638 303.337 119.347 302.83C119.058 302.319 118.914 301.736 118.914 301.08C118.914 300.456 119.053 299.886 119.332 299.369C119.614 298.849 120.008 298.435 120.515 298.126C121.025 297.818 121.625 297.669 122.315 297.679ZM122.315 298.773C121.897 298.773 121.521 298.877 121.186 299.086C120.855 299.291 120.591 299.57 120.396 299.921C120.204 300.269 120.107 300.655 120.107 301.08C120.107 301.504 120.2 301.89 120.386 302.238C120.575 302.583 120.832 302.858 121.156 303.063C121.485 303.265 121.857 303.366 122.275 303.366C122.59 303.366 122.883 303.305 123.155 303.183C123.427 303.057 123.664 302.886 123.866 302.67C124.071 302.452 124.232 302.205 124.348 301.93C124.464 301.651 124.522 301.361 124.522 301.06C124.522 300.662 124.426 300.289 124.234 299.941C124.045 299.593 123.783 299.311 123.448 299.096C123.117 298.88 122.739 298.773 122.315 298.773Z" fill="#0A0D14"/>
<path d="M132.278 303.318C132.278 302.244 132.418 301.257 132.696 300.357C132.977 299.453 133.378 298.622 133.898 297.864H134.784C134.58 298.145 134.388 298.491 134.209 298.903C134.033 299.312 133.878 299.763 133.744 300.254C133.611 300.743 133.506 301.249 133.429 301.771C133.355 302.294 133.318 302.81 133.318 303.318C133.318 303.994 133.384 304.68 133.514 305.376C133.645 306.072 133.821 306.719 134.043 307.315C134.264 307.912 134.511 308.398 134.784 308.773H133.898C133.378 308.014 132.977 307.185 132.696 306.284C132.418 305.381 132.278 304.392 132.278 303.318ZM143.427 301H142.37C142.308 300.696 142.199 300.429 142.042 300.199C141.889 299.969 141.701 299.776 141.48 299.619C141.261 299.46 141.018 299.341 140.751 299.261C140.484 299.182 140.206 299.142 139.916 299.142C139.387 299.142 138.909 299.276 138.48 299.543C138.054 299.81 137.714 300.203 137.461 300.723C137.211 301.243 137.086 301.881 137.086 302.636C137.086 303.392 137.211 304.03 137.461 304.55C137.714 305.07 138.054 305.463 138.48 305.73C138.909 305.997 139.387 306.131 139.916 306.131C140.206 306.131 140.484 306.091 140.751 306.011C141.018 305.932 141.261 305.814 141.48 305.658C141.701 305.499 141.889 305.304 142.042 305.074C142.199 304.841 142.308 304.574 142.37 304.273H143.427C143.348 304.719 143.203 305.118 142.993 305.47C142.782 305.822 142.521 306.122 142.208 306.369C141.896 306.614 141.545 306.8 141.156 306.928C140.77 307.055 140.356 307.119 139.916 307.119C139.172 307.119 138.51 306.938 137.93 306.574C137.35 306.21 136.895 305.693 136.562 305.023C136.23 304.352 136.064 303.557 136.064 302.636C136.064 301.716 136.23 300.92 136.562 300.25C136.895 299.58 137.35 299.062 137.93 298.699C138.51 298.335 139.172 298.153 139.916 298.153C140.356 298.153 140.77 298.217 141.156 298.345C141.545 298.473 141.896 298.661 142.208 298.908C142.521 299.152 142.782 299.45 142.993 299.803C143.203 300.152 143.348 300.551 143.427 301ZM146.925 307.153C146.51 307.153 146.134 307.075 145.795 306.919C145.457 306.76 145.189 306.531 144.99 306.233C144.791 305.932 144.692 305.568 144.692 305.142C144.692 304.767 144.766 304.463 144.913 304.23C145.061 303.994 145.259 303.81 145.506 303.676C145.753 303.543 146.026 303.443 146.324 303.378C146.625 303.31 146.928 303.256 147.232 303.216C147.629 303.165 147.952 303.126 148.199 303.101C148.449 303.072 148.631 303.026 148.744 302.96C148.861 302.895 148.919 302.781 148.919 302.619V302.585C148.919 302.165 148.804 301.838 148.574 301.605C148.347 301.372 148.001 301.256 147.538 301.256C147.058 301.256 146.682 301.361 146.409 301.571C146.136 301.781 145.945 302.006 145.834 302.244L144.879 301.903C145.05 301.506 145.277 301.196 145.561 300.974C145.848 300.75 146.161 300.594 146.499 300.506C146.839 300.415 147.175 300.369 147.504 300.369C147.714 300.369 147.956 300.395 148.229 300.446C148.504 300.494 148.77 300.595 149.026 300.749C149.284 300.902 149.499 301.134 149.669 301.443C149.839 301.753 149.925 302.168 149.925 302.688V307H148.919V306.114H148.868C148.8 306.256 148.686 306.408 148.527 306.57C148.368 306.732 148.156 306.869 147.892 306.983C147.628 307.097 147.305 307.153 146.925 307.153ZM147.078 306.25C147.476 306.25 147.811 306.172 148.084 306.016C148.359 305.859 148.567 305.658 148.706 305.411C148.848 305.163 148.919 304.903 148.919 304.631V303.71C148.876 303.761 148.783 303.808 148.638 303.851C148.496 303.891 148.331 303.926 148.143 303.957C147.959 303.986 147.778 304.011 147.602 304.034C147.429 304.054 147.288 304.071 147.18 304.085C146.919 304.119 146.675 304.175 146.447 304.251C146.223 304.325 146.041 304.437 145.902 304.588C145.766 304.736 145.697 304.937 145.697 305.193C145.697 305.543 145.827 305.807 146.085 305.986C146.347 306.162 146.678 306.25 147.078 306.25ZM156.397 301.92L155.493 302.176C155.436 302.026 155.353 301.879 155.242 301.737C155.134 301.592 154.986 301.473 154.799 301.379C154.611 301.286 154.371 301.239 154.078 301.239C153.678 301.239 153.344 301.331 153.077 301.516C152.813 301.697 152.681 301.929 152.681 302.21C152.681 302.46 152.772 302.658 152.953 302.803C153.135 302.947 153.419 303.068 153.806 303.165L154.777 303.403C155.363 303.545 155.799 303.763 156.086 304.055C156.373 304.345 156.516 304.719 156.516 305.176C156.516 305.551 156.408 305.886 156.192 306.182C155.979 306.477 155.681 306.71 155.297 306.881C154.914 307.051 154.468 307.136 153.959 307.136C153.292 307.136 152.739 306.991 152.301 306.702C151.864 306.412 151.587 305.989 151.471 305.432L152.425 305.193C152.516 305.545 152.688 305.81 152.941 305.986C153.196 306.162 153.53 306.25 153.942 306.25C154.411 306.25 154.783 306.151 155.059 305.952C155.337 305.75 155.476 305.509 155.476 305.227C155.476 305 155.397 304.81 155.238 304.656C155.078 304.5 154.834 304.384 154.505 304.307L153.414 304.051C152.814 303.909 152.374 303.689 152.093 303.391C151.814 303.089 151.675 302.713 151.675 302.261C151.675 301.892 151.779 301.565 151.986 301.281C152.196 300.997 152.482 300.774 152.843 300.612C153.206 300.45 153.618 300.369 154.078 300.369C154.726 300.369 155.235 300.511 155.604 300.795C155.976 301.08 156.24 301.455 156.397 301.92ZM162.155 304.324V300.455H163.161V307H162.155V305.892H162.087C161.933 306.224 161.695 306.507 161.371 306.74C161.047 306.97 160.638 307.085 160.143 307.085C159.734 307.085 159.371 306.996 159.053 306.817C158.734 306.635 158.484 306.362 158.303 305.999C158.121 305.632 158.03 305.17 158.03 304.614V300.455H159.036V304.545C159.036 305.023 159.169 305.403 159.436 305.688C159.706 305.972 160.05 306.114 160.467 306.114C160.717 306.114 160.972 306.05 161.23 305.922C161.491 305.794 161.71 305.598 161.886 305.334C162.065 305.07 162.155 304.733 162.155 304.324ZM166.929 307.153C166.514 307.153 166.137 307.075 165.799 306.919C165.461 306.76 165.193 306.531 164.994 306.233C164.795 305.932 164.696 305.568 164.696 305.142C164.696 304.767 164.77 304.463 164.917 304.23C165.065 303.994 165.262 303.81 165.51 303.676C165.757 303.543 166.029 303.443 166.328 303.378C166.629 303.31 166.931 303.256 167.235 303.216C167.633 303.165 167.956 303.126 168.203 303.101C168.453 303.072 168.635 303.026 168.748 302.96C168.865 302.895 168.923 302.781 168.923 302.619V302.585C168.923 302.165 168.808 301.838 168.578 301.605C168.35 301.372 168.005 301.256 167.542 301.256C167.062 301.256 166.686 301.361 166.413 301.571C166.14 301.781 165.949 302.006 165.838 302.244L164.883 301.903C165.054 301.506 165.281 301.196 165.565 300.974C165.852 300.75 166.164 300.594 166.502 300.506C166.843 300.415 167.179 300.369 167.508 300.369C167.718 300.369 167.96 300.395 168.233 300.446C168.508 300.494 168.774 300.595 169.029 300.749C169.288 300.902 169.502 301.134 169.673 301.443C169.843 301.753 169.929 302.168 169.929 302.688V307H168.923V306.114H168.872C168.804 306.256 168.69 306.408 168.531 306.57C168.372 306.732 168.16 306.869 167.896 306.983C167.632 307.097 167.309 307.153 166.929 307.153ZM167.082 306.25C167.48 306.25 167.815 306.172 168.088 306.016C168.363 305.859 168.571 305.658 168.71 305.411C168.852 305.163 168.923 304.903 168.923 304.631V303.71C168.88 303.761 168.787 303.808 168.642 303.851C168.5 303.891 168.335 303.926 168.147 303.957C167.963 303.986 167.782 304.011 167.606 304.034C167.433 304.054 167.292 304.071 167.184 304.085C166.923 304.119 166.679 304.175 166.451 304.251C166.227 304.325 166.045 304.437 165.906 304.588C165.77 304.736 165.701 304.937 165.701 305.193C165.701 305.543 165.831 305.807 166.089 305.986C166.35 306.162 166.681 306.25 167.082 306.25ZM172.77 298.273V307H171.764V298.273H172.77ZM176.76 303.318C176.76 304.392 176.619 305.381 176.338 306.284C176.059 307.185 175.66 308.014 175.14 308.773H174.254C174.458 308.491 174.649 308.145 174.825 307.733C175.004 307.324 175.16 306.875 175.294 306.386C175.427 305.895 175.531 305.388 175.605 304.865C175.681 304.339 175.72 303.824 175.72 303.318C175.72 302.642 175.654 301.956 175.524 301.26C175.393 300.564 175.217 299.918 174.995 299.321C174.774 298.724 174.527 298.239 174.254 297.864H175.14C175.66 298.622 176.059 299.453 176.338 300.357C176.619 301.257 176.76 302.244 176.76 303.318Z" fill="#868C98"/>
<path d="M261 303C261 297.477 265.477 293 271 293H328C333.523 293 338 297.477 338 303C338 308.523 333.523 313 328 313H271C265.477 313 261 308.523 261 303Z" fill="#CBF5E5"/>
<path d="M277.502 301.111H276.173C276.122 300.827 276.026 300.577 275.887 300.361C275.748 300.145 275.578 299.962 275.376 299.811C275.174 299.661 274.948 299.547 274.698 299.47C274.451 299.393 274.188 299.355 273.91 299.355C273.407 299.355 272.957 299.482 272.559 299.734C272.164 299.987 271.852 300.358 271.622 300.847C271.394 301.335 271.281 301.932 271.281 302.636C271.281 303.347 271.394 303.946 271.622 304.435C271.852 304.923 272.166 305.293 272.563 305.543C272.961 305.793 273.409 305.918 273.906 305.918C274.181 305.918 274.443 305.881 274.69 305.807C274.94 305.73 275.166 305.618 275.367 305.47C275.569 305.322 275.74 305.142 275.879 304.929C276.021 304.713 276.119 304.466 276.173 304.188L277.502 304.192C277.431 304.621 277.294 305.016 277.089 305.376C276.887 305.734 276.627 306.044 276.309 306.305C275.994 306.564 275.633 306.764 275.227 306.906C274.82 307.048 274.377 307.119 273.897 307.119C273.142 307.119 272.468 306.94 271.877 306.582C271.286 306.222 270.82 305.706 270.48 305.036C270.142 304.365 269.972 303.565 269.972 302.636C269.972 301.705 270.143 300.905 270.484 300.237C270.825 299.567 271.291 299.053 271.882 298.695C272.472 298.334 273.144 298.153 273.897 298.153C274.36 298.153 274.792 298.22 275.193 298.354C275.596 298.484 275.958 298.678 276.279 298.933C276.6 299.186 276.866 299.496 277.076 299.862C277.286 300.226 277.428 300.642 277.502 301.111ZM281.733 307.132C281.119 307.132 280.584 306.991 280.126 306.71C279.669 306.429 279.314 306.036 279.061 305.53C278.808 305.024 278.682 304.433 278.682 303.757C278.682 303.078 278.808 302.484 279.061 301.976C279.314 301.467 279.669 301.072 280.126 300.791C280.584 300.51 281.119 300.369 281.733 300.369C282.346 300.369 282.882 300.51 283.339 300.791C283.797 301.072 284.152 301.467 284.405 301.976C284.657 302.484 284.784 303.078 284.784 303.757C284.784 304.433 284.657 305.024 284.405 305.53C284.152 306.036 283.797 306.429 283.339 306.71C282.882 306.991 282.346 307.132 281.733 307.132ZM281.737 306.062C282.135 306.062 282.464 305.957 282.726 305.747C282.987 305.537 283.18 305.257 283.305 304.908C283.433 304.558 283.497 304.173 283.497 303.753C283.497 303.335 283.433 302.952 283.305 302.602C283.18 302.25 282.987 301.967 282.726 301.754C282.464 301.541 282.135 301.435 281.737 301.435C281.336 301.435 281.004 301.541 280.74 301.754C280.479 301.967 280.284 302.25 280.156 302.602C280.031 302.952 279.969 303.335 279.969 303.753C279.969 304.173 280.031 304.558 280.156 304.908C280.284 305.257 280.479 305.537 280.74 305.747C281.004 305.957 281.336 306.062 281.737 306.062ZM287.48 303.114V307H286.206V300.455H287.429V301.52H287.51C287.661 301.173 287.896 300.895 288.218 300.685C288.541 300.474 288.949 300.369 289.441 300.369C289.887 300.369 290.277 300.463 290.612 300.651C290.948 300.835 291.208 301.111 291.392 301.477C291.577 301.844 291.669 302.297 291.669 302.837V307H290.395V302.99C290.395 302.516 290.271 302.145 290.024 301.878C289.777 301.608 289.438 301.473 289.006 301.473C288.71 301.473 288.448 301.537 288.218 301.665C287.99 301.793 287.81 301.98 287.676 302.227C287.546 302.472 287.48 302.767 287.48 303.114ZM296.493 300.455V301.477H292.794V300.455H296.493ZM293.808 307V299.696C293.808 299.287 293.898 298.947 294.077 298.678C294.256 298.405 294.493 298.202 294.789 298.068C295.084 297.932 295.405 297.864 295.752 297.864C296.007 297.864 296.226 297.885 296.408 297.928C296.59 297.967 296.725 298.004 296.813 298.038L296.514 299.07C296.455 299.053 296.378 299.033 296.284 299.01C296.191 298.984 296.077 298.972 295.943 298.972C295.634 298.972 295.412 299.048 295.279 299.202C295.148 299.355 295.083 299.577 295.083 299.866V307H293.808ZM297.808 307V300.455H299.082V307H297.808ZM298.451 299.445C298.23 299.445 298.039 299.371 297.88 299.223C297.724 299.072 297.646 298.893 297.646 298.686C297.646 298.476 297.724 298.297 297.88 298.149C298.039 297.999 298.23 297.923 298.451 297.923C298.673 297.923 298.862 297.999 299.018 298.149C299.177 298.297 299.257 298.476 299.257 298.686C299.257 298.893 299.177 299.072 299.018 299.223C298.862 299.371 298.673 299.445 298.451 299.445ZM300.796 307V300.455H302.028V301.494H302.096C302.215 301.142 302.425 300.865 302.726 300.663C303.03 300.459 303.374 300.357 303.758 300.357C303.837 300.357 303.931 300.359 304.039 300.365C304.15 300.371 304.236 300.378 304.299 300.386V301.605C304.248 301.591 304.157 301.575 304.026 301.558C303.895 301.538 303.765 301.528 303.634 301.528C303.333 301.528 303.064 301.592 302.829 301.72C302.596 301.845 302.411 302.02 302.275 302.244C302.138 302.466 302.07 302.719 302.07 303.003V307H300.796ZM305.401 307V300.455H306.624V301.52H306.705C306.842 301.159 307.065 300.878 307.374 300.676C307.684 300.472 308.055 300.369 308.487 300.369C308.924 300.369 309.291 300.472 309.586 300.676C309.884 300.881 310.105 301.162 310.247 301.52H310.315C310.471 301.17 310.72 300.892 311.061 300.685C311.401 300.474 311.808 300.369 312.279 300.369C312.873 300.369 313.357 300.555 313.732 300.928C314.11 301.3 314.299 301.861 314.299 302.611V307H313.025V302.73C313.025 302.287 312.904 301.966 312.663 301.767C312.421 301.568 312.133 301.469 311.798 301.469C311.383 301.469 311.061 301.597 310.83 301.852C310.6 302.105 310.485 302.43 310.485 302.828V307H309.215V302.649C309.215 302.294 309.105 302.009 308.883 301.793C308.661 301.577 308.373 301.469 308.018 301.469C307.776 301.469 307.553 301.533 307.349 301.661C307.147 301.786 306.984 301.96 306.859 302.185C306.737 302.409 306.676 302.669 306.676 302.964V307H305.401ZM318.828 307.132C318.183 307.132 317.628 306.994 317.162 306.719C316.699 306.44 316.341 306.05 316.088 305.547C315.838 305.041 315.713 304.449 315.713 303.77C315.713 303.099 315.838 302.509 316.088 301.997C316.341 301.486 316.693 301.087 317.145 300.8C317.599 300.513 318.131 300.369 318.738 300.369C319.108 300.369 319.466 300.43 319.812 300.553C320.159 300.675 320.47 300.866 320.746 301.128C321.021 301.389 321.238 301.729 321.398 302.146C321.557 302.561 321.636 303.065 321.636 303.659V304.111H316.433V303.156H320.388C320.388 302.821 320.319 302.524 320.183 302.266C320.047 302.004 319.855 301.798 319.608 301.648C319.363 301.497 319.077 301.422 318.747 301.422C318.389 301.422 318.077 301.51 317.809 301.686C317.545 301.859 317.341 302.087 317.196 302.368C317.054 302.646 316.983 302.949 316.983 303.276V304.021C316.983 304.459 317.059 304.831 317.213 305.138C317.369 305.445 317.586 305.679 317.865 305.841C318.143 306 318.469 306.08 318.841 306.08C319.082 306.08 319.302 306.045 319.501 305.977C319.7 305.906 319.872 305.801 320.017 305.662C320.162 305.523 320.273 305.351 320.349 305.146L321.555 305.364C321.459 305.719 321.285 306.03 321.035 306.297C320.788 306.561 320.477 306.767 320.102 306.915C319.73 307.06 319.305 307.132 318.828 307.132ZM325.5 307.128C324.972 307.128 324.5 306.993 324.085 306.723C323.673 306.45 323.35 306.062 323.114 305.56C322.881 305.054 322.764 304.447 322.764 303.74C322.764 303.033 322.882 302.428 323.118 301.925C323.357 301.422 323.683 301.037 324.098 300.77C324.513 300.503 324.983 300.369 325.509 300.369C325.915 300.369 326.242 300.438 326.489 300.574C326.739 300.707 326.932 300.864 327.068 301.043C327.208 301.222 327.316 301.379 327.392 301.516H327.469V298.273H328.743V307H327.499V305.982H327.392C327.316 306.121 327.205 306.28 327.06 306.459C326.918 306.638 326.722 306.794 326.472 306.928C326.222 307.061 325.898 307.128 325.5 307.128ZM325.781 306.041C326.148 306.041 326.458 305.945 326.71 305.751C326.966 305.555 327.159 305.284 327.29 304.938C327.423 304.591 327.49 304.187 327.49 303.727C327.49 303.273 327.425 302.875 327.294 302.534C327.164 302.193 326.972 301.928 326.719 301.737C326.466 301.547 326.154 301.452 325.781 301.452C325.398 301.452 325.078 301.551 324.823 301.75C324.567 301.949 324.374 302.22 324.243 302.564C324.115 302.908 324.051 303.295 324.051 303.727C324.051 304.165 324.117 304.558 324.247 304.908C324.378 305.257 324.571 305.534 324.827 305.739C325.085 305.94 325.404 306.041 325.781 306.041Z" fill="#176448"/>
<line x1="18" y1="328.5" x2="338" y2="328.5" stroke="#E2E4E9"/>
<path d="M28 362.5C23.8578 362.5 20.5 359.142 20.5 355C20.5 350.858 23.8578 347.5 28 347.5C32.1423 347.5 35.5 350.858 35.5 355C35.5 359.142 32.1423 362.5 28 362.5ZM28 353.94L25.879 351.818L24.8177 352.879L26.9395 355L24.8177 357.121L25.879 358.182L28 356.06L30.121 358.182L31.1823 357.121L29.0605 355L31.1823 352.879L30.121 351.818L28 353.94Z" fill="#DF1C41"/>
<path d="M47.1307 349.818H48.3636V357.097C48.3636 357.746 48.2443 358.298 48.0057 358.752C47.767 359.206 47.4306 359.551 46.9964 359.786C46.5623 360.022 46.0502 360.139 45.4602 360.139C44.9034 360.139 44.4079 360.038 43.9737 359.836C43.5395 359.63 43.1982 359.339 42.9496 358.961C42.701 358.583 42.5767 358.134 42.5767 357.614H43.7898C43.7898 357.902 43.861 358.154 44.0036 358.369C44.1494 358.581 44.3482 358.747 44.6001 358.866C44.852 358.986 45.1387 359.045 45.4602 359.045C45.8149 359.045 46.1165 358.971 46.3651 358.822C46.6136 358.673 46.8026 358.454 46.9318 358.165C47.0644 357.874 47.1307 357.518 47.1307 357.097V349.818ZM55.4039 356.878V352.364H56.5772V360H55.4039V358.707H55.3244C55.1454 359.095 54.867 359.425 54.4892 359.697C54.1113 359.965 53.634 360.099 53.0573 360.099C52.5801 360.099 52.1558 359.995 51.7846 359.786C51.4134 359.574 51.1217 359.256 50.9096 358.832C50.6975 358.404 50.5914 357.866 50.5914 357.216V352.364H51.7647V357.136C51.7647 357.693 51.9205 358.137 52.2321 358.469C52.5469 358.8 52.948 358.966 53.4352 358.966C53.7268 358.966 54.0235 358.891 54.3251 358.742C54.63 358.593 54.8852 358.364 55.0907 358.056C55.2995 357.748 55.4039 357.355 55.4039 356.878ZM59.8155 349.818V360H58.6422V349.818H59.8155ZM62.6361 362.864C62.4373 362.864 62.26 362.847 62.1042 362.814C61.9484 362.784 61.8407 362.754 61.781 362.724L62.0793 361.69C62.3644 361.763 62.6163 361.79 62.835 361.77C63.0538 361.75 63.2476 361.652 63.4167 361.477C63.589 361.304 63.7465 361.024 63.889 360.636L64.1077 360.04L61.2839 352.364H62.5566L64.6645 358.449H64.7441L66.852 352.364H68.1248L64.8833 361.114C64.7375 361.508 64.5568 361.835 64.3414 362.093C64.126 362.355 63.8757 362.549 63.5907 362.675C63.309 362.801 62.9908 362.864 62.6361 362.864ZM77.0026 349.818V360H75.7696V351.111H75.71L73.2242 352.761V351.509L75.7696 349.818H77.0026ZM83.0287 360.139C82.4453 360.139 81.92 360.023 81.4527 359.791C80.9853 359.559 80.6108 359.241 80.3291 358.837C80.0474 358.432 79.8933 357.972 79.8667 357.455H81.0599C81.1063 357.915 81.3151 358.296 81.6863 358.598C82.0609 358.896 82.5083 359.045 83.0287 359.045C83.4463 359.045 83.8175 358.948 84.1423 358.752C84.4704 358.557 84.7273 358.288 84.9129 357.947C85.1018 357.602 85.1963 357.213 85.1963 356.778C85.1963 356.334 85.0985 355.938 84.903 355.59C84.7107 355.239 84.4456 354.962 84.1075 354.76C83.7694 354.558 83.3833 354.455 82.9491 354.452C82.6376 354.448 82.3177 354.496 81.9896 354.596C81.6615 354.692 81.3914 354.816 81.1792 354.969L80.0258 354.83L80.6423 349.818H85.9321V350.912H81.6764L81.3184 353.915H81.3781C81.5869 353.749 81.8487 353.612 82.1636 353.502C82.4785 353.393 82.8066 353.338 83.148 353.338C83.7711 353.338 84.3263 353.487 84.8135 353.786C85.304 354.08 85.6885 354.485 85.9669 354.999C86.2486 355.512 86.3895 356.099 86.3895 356.759C86.3895 357.408 86.2436 357.988 85.952 358.499C85.6636 359.006 85.2659 359.407 84.7588 359.702C84.2517 359.993 83.675 360.139 83.0287 360.139ZM89.6675 358.608L89.588 359.145C89.5316 359.523 89.4454 359.927 89.3294 360.358C89.2167 360.789 89.0991 361.195 88.9765 361.576C88.8538 361.957 88.7527 362.26 88.6732 362.486H87.7783C87.8214 362.274 87.8777 361.994 87.9473 361.646C88.0169 361.298 88.0865 360.908 88.1561 360.477C88.2291 360.05 88.2887 359.612 88.3351 359.165L88.3948 358.608H89.6675ZM95.5909 360V359.105L98.9517 355.426C99.3462 354.995 99.671 354.621 99.9262 354.303C100.181 353.981 100.37 353.679 100.493 353.398C100.619 353.113 100.682 352.814 100.682 352.503C100.682 352.145 100.596 351.835 100.423 351.573C100.254 351.311 100.022 351.109 99.7273 350.967C99.4323 350.824 99.1009 350.753 98.733 350.753C98.3419 350.753 98.0005 350.834 97.7088 350.996C97.4205 351.156 97.1968 351.379 97.0377 351.668C96.8819 351.956 96.804 352.294 96.804 352.682H95.6307C95.6307 352.085 95.7683 351.562 96.0434 351.111C96.3185 350.66 96.693 350.309 97.1669 350.057C97.6442 349.805 98.1795 349.679 98.7728 349.679C99.3694 349.679 99.898 349.805 100.359 350.057C100.819 350.309 101.181 350.648 101.443 351.076C101.704 351.504 101.835 351.979 101.835 352.503C101.835 352.877 101.767 353.244 101.631 353.602C101.499 353.956 101.267 354.352 100.935 354.79C100.607 355.224 100.152 355.754 99.5682 356.381L97.2813 358.827V358.906H102.014V360H95.5909ZM107.305 360.139C106.555 360.139 105.917 359.935 105.39 359.528C104.863 359.117 104.461 358.522 104.182 357.743C103.904 356.961 103.765 356.016 103.765 354.909C103.765 353.809 103.904 352.869 104.182 352.09C104.464 351.308 104.868 350.711 105.395 350.3C105.926 349.886 106.562 349.679 107.305 349.679C108.047 349.679 108.682 349.886 109.209 350.3C109.739 350.711 110.143 351.308 110.422 352.09C110.703 352.869 110.844 353.809 110.844 354.909C110.844 356.016 110.705 356.961 110.427 357.743C110.148 358.522 109.746 359.117 109.219 359.528C108.692 359.935 108.054 360.139 107.305 360.139ZM107.305 359.045C108.047 359.045 108.624 358.687 109.035 357.972C109.446 357.256 109.651 356.235 109.651 354.909C109.651 354.027 109.557 353.277 109.368 352.657C109.182 352.037 108.914 351.565 108.562 351.24C108.214 350.915 107.795 350.753 107.305 350.753C106.569 350.753 105.994 351.116 105.579 351.842C105.165 352.564 104.958 353.587 104.958 354.909C104.958 355.791 105.051 356.54 105.236 357.156C105.422 357.773 105.689 358.242 106.037 358.563C106.388 358.885 106.811 359.045 107.305 359.045ZM116.229 349.818V360H114.996V351.111H114.936L112.451 352.761V351.509L114.996 349.818H116.229ZM122.315 349.679C122.732 349.682 123.15 349.762 123.568 349.918C123.985 350.073 124.366 350.332 124.711 350.693C125.056 351.051 125.333 351.54 125.541 352.16C125.75 352.78 125.855 353.557 125.855 354.491C125.855 355.396 125.768 356.2 125.596 356.903C125.427 357.602 125.182 358.192 124.86 358.673C124.542 359.153 124.154 359.518 123.697 359.766C123.243 360.015 122.729 360.139 122.156 360.139C121.586 360.139 121.077 360.027 120.629 359.801C120.185 359.572 119.821 359.256 119.536 358.852C119.254 358.444 119.073 357.972 118.994 357.435H120.207C120.316 357.902 120.533 358.288 120.858 358.593C121.186 358.895 121.619 359.045 122.156 359.045C122.941 359.045 123.561 358.702 124.015 358.016C124.472 357.33 124.701 356.361 124.701 355.108H124.622C124.436 355.386 124.216 355.627 123.96 355.829C123.705 356.031 123.422 356.187 123.11 356.296C122.799 356.406 122.467 356.46 122.116 356.46C121.533 356.46 120.997 356.316 120.51 356.028C120.026 355.736 119.638 355.337 119.347 354.83C119.058 354.319 118.914 353.736 118.914 353.08C118.914 352.456 119.053 351.886 119.332 351.369C119.614 350.849 120.008 350.435 120.515 350.126C121.025 349.818 121.625 349.669 122.315 349.679ZM122.315 350.773C121.897 350.773 121.521 350.877 121.186 351.086C120.855 351.291 120.591 351.57 120.396 351.921C120.204 352.269 120.107 352.655 120.107 353.08C120.107 353.504 120.2 353.89 120.386 354.238C120.575 354.583 120.832 354.858 121.156 355.063C121.485 355.265 121.857 355.366 122.275 355.366C122.59 355.366 122.883 355.305 123.155 355.183C123.427 355.057 123.664 354.886 123.866 354.67C124.071 354.452 124.232 354.205 124.348 353.93C124.464 353.651 124.522 353.361 124.522 353.06C124.522 352.662 124.426 352.289 124.234 351.941C124.045 351.593 123.783 351.311 123.448 351.096C123.117 350.88 122.739 350.773 122.315 350.773Z" fill="#0A0D14"/>
<path d="M132.278 355.318C132.278 354.244 132.418 353.257 132.696 352.357C132.977 351.453 133.378 350.622 133.898 349.864H134.784C134.58 350.145 134.388 350.491 134.209 350.903C134.033 351.312 133.878 351.763 133.744 352.254C133.611 352.743 133.506 353.249 133.429 353.771C133.355 354.294 133.318 354.81 133.318 355.318C133.318 355.994 133.384 356.68 133.514 357.376C133.645 358.072 133.821 358.719 134.043 359.315C134.264 359.912 134.511 360.398 134.784 360.773H133.898C133.378 360.014 132.977 359.185 132.696 358.284C132.418 357.381 132.278 356.392 132.278 355.318ZM143.427 353H142.37C142.308 352.696 142.199 352.429 142.042 352.199C141.889 351.969 141.701 351.776 141.48 351.619C141.261 351.46 141.018 351.341 140.751 351.261C140.484 351.182 140.206 351.142 139.916 351.142C139.387 351.142 138.909 351.276 138.48 351.543C138.054 351.81 137.714 352.203 137.461 352.723C137.211 353.243 137.086 353.881 137.086 354.636C137.086 355.392 137.211 356.03 137.461 356.55C137.714 357.07 138.054 357.463 138.48 357.73C138.909 357.997 139.387 358.131 139.916 358.131C140.206 358.131 140.484 358.091 140.751 358.011C141.018 357.932 141.261 357.814 141.48 357.658C141.701 357.499 141.889 357.304 142.042 357.074C142.199 356.841 142.308 356.574 142.37 356.273H143.427C143.348 356.719 143.203 357.118 142.993 357.47C142.782 357.822 142.521 358.122 142.208 358.369C141.896 358.614 141.545 358.8 141.156 358.928C140.77 359.055 140.356 359.119 139.916 359.119C139.172 359.119 138.51 358.938 137.93 358.574C137.35 358.21 136.895 357.693 136.562 357.023C136.23 356.352 136.064 355.557 136.064 354.636C136.064 353.716 136.23 352.92 136.562 352.25C136.895 351.58 137.35 351.062 137.93 350.699C138.51 350.335 139.172 350.153 139.916 350.153C140.356 350.153 140.77 350.217 141.156 350.345C141.545 350.473 141.896 350.661 142.208 350.908C142.521 351.152 142.782 351.45 142.993 351.803C143.203 352.152 143.348 352.551 143.427 353ZM146.925 359.153C146.51 359.153 146.134 359.075 145.795 358.919C145.457 358.76 145.189 358.531 144.99 358.233C144.791 357.932 144.692 357.568 144.692 357.142C144.692 356.767 144.766 356.463 144.913 356.23C145.061 355.994 145.259 355.81 145.506 355.676C145.753 355.543 146.026 355.443 146.324 355.378C146.625 355.31 146.928 355.256 147.232 355.216C147.629 355.165 147.952 355.126 148.199 355.101C148.449 355.072 148.631 355.026 148.744 354.96C148.861 354.895 148.919 354.781 148.919 354.619V354.585C148.919 354.165 148.804 353.838 148.574 353.605C148.347 353.372 148.001 353.256 147.538 353.256C147.058 353.256 146.682 353.361 146.409 353.571C146.136 353.781 145.945 354.006 145.834 354.244L144.879 353.903C145.05 353.506 145.277 353.196 145.561 352.974C145.848 352.75 146.161 352.594 146.499 352.506C146.839 352.415 147.175 352.369 147.504 352.369C147.714 352.369 147.956 352.395 148.229 352.446C148.504 352.494 148.77 352.595 149.026 352.749C149.284 352.902 149.499 353.134 149.669 353.443C149.839 353.753 149.925 354.168 149.925 354.688V359H148.919V358.114H148.868C148.8 358.256 148.686 358.408 148.527 358.57C148.368 358.732 148.156 358.869 147.892 358.983C147.628 359.097 147.305 359.153 146.925 359.153ZM147.078 358.25C147.476 358.25 147.811 358.172 148.084 358.016C148.359 357.859 148.567 357.658 148.706 357.411C148.848 357.163 148.919 356.903 148.919 356.631V355.71C148.876 355.761 148.783 355.808 148.638 355.851C148.496 355.891 148.331 355.926 148.143 355.957C147.959 355.986 147.778 356.011 147.602 356.034C147.429 356.054 147.288 356.071 147.18 356.085C146.919 356.119 146.675 356.175 146.447 356.251C146.223 356.325 146.041 356.437 145.902 356.588C145.766 356.736 145.697 356.937 145.697 357.193C145.697 357.543 145.827 357.807 146.085 357.986C146.347 358.162 146.678 358.25 147.078 358.25ZM156.397 353.92L155.493 354.176C155.436 354.026 155.353 353.879 155.242 353.737C155.134 353.592 154.986 353.473 154.799 353.379C154.611 353.286 154.371 353.239 154.078 353.239C153.678 353.239 153.344 353.331 153.077 353.516C152.813 353.697 152.681 353.929 152.681 354.21C152.681 354.46 152.772 354.658 152.953 354.803C153.135 354.947 153.419 355.068 153.806 355.165L154.777 355.403C155.363 355.545 155.799 355.763 156.086 356.055C156.373 356.345 156.516 356.719 156.516 357.176C156.516 357.551 156.408 357.886 156.192 358.182C155.979 358.477 155.681 358.71 155.297 358.881C154.914 359.051 154.468 359.136 153.959 359.136C153.292 359.136 152.739 358.991 152.301 358.702C151.864 358.412 151.587 357.989 151.471 357.432L152.425 357.193C152.516 357.545 152.688 357.81 152.941 357.986C153.196 358.162 153.53 358.25 153.942 358.25C154.411 358.25 154.783 358.151 155.059 357.952C155.337 357.75 155.476 357.509 155.476 357.227C155.476 357 155.397 356.81 155.238 356.656C155.078 356.5 154.834 356.384 154.505 356.307L153.414 356.051C152.814 355.909 152.374 355.689 152.093 355.391C151.814 355.089 151.675 354.713 151.675 354.261C151.675 353.892 151.779 353.565 151.986 353.281C152.196 352.997 152.482 352.774 152.843 352.612C153.206 352.45 153.618 352.369 154.078 352.369C154.726 352.369 155.235 352.511 155.604 352.795C155.976 353.08 156.24 353.455 156.397 353.92ZM162.155 356.324V352.455H163.161V359H162.155V357.892H162.087C161.933 358.224 161.695 358.507 161.371 358.74C161.047 358.97 160.638 359.085 160.143 359.085C159.734 359.085 159.371 358.996 159.053 358.817C158.734 358.635 158.484 358.362 158.303 357.999C158.121 357.632 158.03 357.17 158.03 356.614V352.455H159.036V356.545C159.036 357.023 159.169 357.403 159.436 357.688C159.706 357.972 160.05 358.114 160.467 358.114C160.717 358.114 160.972 358.05 161.23 357.922C161.491 357.794 161.71 357.598 161.886 357.334C162.065 357.07 162.155 356.733 162.155 356.324ZM166.929 359.153C166.514 359.153 166.137 359.075 165.799 358.919C165.461 358.76 165.193 358.531 164.994 358.233C164.795 357.932 164.696 357.568 164.696 357.142C164.696 356.767 164.77 356.463 164.917 356.23C165.065 355.994 165.262 355.81 165.51 355.676C165.757 355.543 166.029 355.443 166.328 355.378C166.629 355.31 166.931 355.256 167.235 355.216C167.633 355.165 167.956 355.126 168.203 355.101C168.453 355.072 168.635 355.026 168.748 354.96C168.865 354.895 168.923 354.781 168.923 354.619V354.585C168.923 354.165 168.808 353.838 168.578 353.605C168.35 353.372 168.005 353.256 167.542 353.256C167.062 353.256 166.686 353.361 166.413 353.571C166.14 353.781 165.949 354.006 165.838 354.244L164.883 353.903C165.054 353.506 165.281 353.196 165.565 352.974C165.852 352.75 166.164 352.594 166.502 352.506C166.843 352.415 167.179 352.369 167.508 352.369C167.718 352.369 167.96 352.395 168.233 352.446C168.508 352.494 168.774 352.595 169.029 352.749C169.288 352.902 169.502 353.134 169.673 353.443C169.843 353.753 169.929 354.168 169.929 354.688V359H168.923V358.114H168.872C168.804 358.256 168.69 358.408 168.531 358.57C168.372 358.732 168.16 358.869 167.896 358.983C167.632 359.097 167.309 359.153 166.929 359.153ZM167.082 358.25C167.48 358.25 167.815 358.172 168.088 358.016C168.363 357.859 168.571 357.658 168.71 357.411C168.852 357.163 168.923 356.903 168.923 356.631V355.71C168.88 355.761 168.787 355.808 168.642 355.851C168.5 355.891 168.335 355.926 168.147 355.957C167.963 355.986 167.782 356.011 167.606 356.034C167.433 356.054 167.292 356.071 167.184 356.085C166.923 356.119 166.679 356.175 166.451 356.251C166.227 356.325 166.045 356.437 165.906 356.588C165.77 356.736 165.701 356.937 165.701 357.193C165.701 357.543 165.831 357.807 166.089 357.986C166.35 358.162 166.681 358.25 167.082 358.25ZM172.77 350.273V359H171.764V350.273H172.77ZM176.76 355.318C176.76 356.392 176.619 357.381 176.338 358.284C176.059 359.185 175.66 360.014 175.14 360.773H174.254C174.458 360.491 174.649 360.145 174.825 359.733C175.004 359.324 175.16 358.875 175.294 358.386C175.427 357.895 175.531 357.388 175.605 356.865C175.681 356.339 175.72 355.824 175.72 355.318C175.72 354.642 175.654 353.956 175.524 353.26C175.393 352.564 175.217 351.918 174.995 351.321C174.774 350.724 174.527 350.239 174.254 349.864H175.14C175.66 350.622 176.059 351.453 176.338 352.357C176.619 353.257 176.76 354.244 176.76 355.318Z" fill="#868C98"/>
<path d="M271 355C271 349.477 275.477 345 281 345H328C333.523 345 338 349.477 338 355C338 360.523 333.523 365 328 365H281C275.477 365 271 360.523 271 355Z" fill="#F8C9D2"/>
<path d="M280.217 359V350.273H283.327C284.004 350.273 284.565 350.389 285.011 350.622C285.46 350.855 285.795 351.178 286.016 351.589C286.238 351.999 286.349 352.472 286.349 353.009C286.349 353.543 286.237 354.013 286.012 354.419C285.79 354.822 285.455 355.136 285.006 355.361C284.56 355.585 283.999 355.697 283.323 355.697H280.967V354.564H283.204C283.63 354.564 283.977 354.503 284.244 354.381C284.513 354.259 284.711 354.081 284.836 353.848C284.961 353.615 285.023 353.335 285.023 353.009C285.023 352.679 284.96 352.393 284.832 352.152C284.707 351.911 284.509 351.726 284.239 351.598C283.972 351.467 283.621 351.402 283.187 351.402H281.533V359H280.217ZM284.525 355.062L286.681 359H285.181L283.067 355.062H284.525ZM290.588 359.132C289.943 359.132 289.387 358.994 288.922 358.719C288.458 358.44 288.1 358.05 287.848 357.547C287.598 357.041 287.473 356.449 287.473 355.77C287.473 355.099 287.598 354.509 287.848 353.997C288.1 353.486 288.453 353.087 288.904 352.8C289.359 352.513 289.89 352.369 290.498 352.369C290.868 352.369 291.225 352.43 291.572 352.553C291.919 352.675 292.23 352.866 292.505 353.128C292.781 353.389 292.998 353.729 293.157 354.146C293.316 354.561 293.396 355.065 293.396 355.659V356.111H288.193V355.156H292.147C292.147 354.821 292.079 354.524 291.943 354.266C291.806 354.004 291.615 353.798 291.368 353.648C291.123 353.497 290.836 353.422 290.507 353.422C290.149 353.422 289.836 353.51 289.569 353.686C289.305 353.859 289.1 354.087 288.956 354.368C288.814 354.646 288.743 354.949 288.743 355.276V356.021C288.743 356.459 288.819 356.831 288.973 357.138C289.129 357.445 289.346 357.679 289.625 357.841C289.903 358 290.228 358.08 290.6 358.08C290.842 358.08 291.062 358.045 291.261 357.977C291.46 357.906 291.632 357.801 291.777 357.662C291.922 357.523 292.032 357.351 292.109 357.146L293.315 357.364C293.218 357.719 293.045 358.03 292.795 358.297C292.548 358.561 292.237 358.767 291.862 358.915C291.49 359.06 291.065 359.132 290.588 359.132ZM294.81 352.455H296.084V359.426C296.084 359.864 296.004 360.233 295.845 360.534C295.689 360.835 295.456 361.064 295.146 361.22C294.839 361.376 294.46 361.455 294.009 361.455C293.963 361.455 293.92 361.455 293.881 361.455C293.838 361.455 293.794 361.453 293.749 361.45V360.355C293.788 360.355 293.824 360.355 293.855 360.355C293.884 360.355 293.916 360.355 293.953 360.355C294.254 360.355 294.472 360.274 294.605 360.112C294.741 359.953 294.81 359.722 294.81 359.418V352.455ZM295.44 351.445C295.219 351.445 295.028 351.371 294.869 351.223C294.713 351.072 294.635 350.893 294.635 350.686C294.635 350.476 294.713 350.297 294.869 350.149C295.028 349.999 295.219 349.923 295.44 349.923C295.662 349.923 295.851 349.999 296.007 350.149C296.166 350.297 296.246 350.476 296.246 350.686C296.246 350.893 296.166 351.072 296.007 351.223C295.851 351.371 295.662 351.445 295.44 351.445ZM300.619 359.132C299.974 359.132 299.419 358.994 298.953 358.719C298.49 358.44 298.132 358.05 297.879 357.547C297.629 357.041 297.504 356.449 297.504 355.77C297.504 355.099 297.629 354.509 297.879 353.997C298.132 353.486 298.484 353.087 298.936 352.8C299.39 352.513 299.922 352.369 300.529 352.369C300.899 352.369 301.257 352.43 301.603 352.553C301.95 352.675 302.261 352.866 302.537 353.128C302.812 353.389 303.029 353.729 303.189 354.146C303.348 354.561 303.427 355.065 303.427 355.659V356.111H298.224V355.156H302.179C302.179 354.821 302.11 354.524 301.974 354.266C301.838 354.004 301.646 353.798 301.399 353.648C301.154 353.497 300.868 353.422 300.538 353.422C300.18 353.422 299.868 353.51 299.6 353.686C299.336 353.859 299.132 354.087 298.987 354.368C298.845 354.646 298.774 354.949 298.774 355.276V356.021C298.774 356.459 298.85 356.831 299.004 357.138C299.16 357.445 299.377 357.679 299.656 357.841C299.934 358 300.26 358.08 300.632 358.08C300.873 358.08 301.093 358.045 301.292 357.977C301.491 357.906 301.663 357.801 301.808 357.662C301.953 357.523 302.064 357.351 302.14 357.146L303.346 357.364C303.25 357.719 303.076 358.03 302.826 358.297C302.579 358.561 302.268 358.767 301.893 358.915C301.521 359.06 301.096 359.132 300.619 359.132ZM307.598 359.132C306.964 359.132 306.419 358.989 305.962 358.702C305.507 358.412 305.158 358.013 304.913 357.504C304.669 356.996 304.547 356.413 304.547 355.757C304.547 355.092 304.672 354.506 304.922 353.997C305.172 353.486 305.524 353.087 305.979 352.8C306.433 352.513 306.969 352.369 307.585 352.369C308.082 352.369 308.526 352.462 308.915 352.646C309.304 352.828 309.618 353.084 309.857 353.413C310.098 353.743 310.241 354.128 310.287 354.568H309.047C308.979 354.261 308.822 353.997 308.578 353.776C308.337 353.554 308.013 353.443 307.607 353.443C307.251 353.443 306.94 353.537 306.673 353.724C306.409 353.909 306.203 354.173 306.055 354.517C305.908 354.858 305.834 355.261 305.834 355.727C305.834 356.205 305.906 356.616 306.051 356.963C306.196 357.31 306.401 357.578 306.665 357.768C306.932 357.959 307.246 358.054 307.607 358.054C307.848 358.054 308.067 358.01 308.263 357.922C308.462 357.831 308.628 357.702 308.761 357.534C308.898 357.366 308.993 357.165 309.047 356.929H310.287C310.241 357.352 310.104 357.73 309.874 358.062C309.643 358.395 309.335 358.656 308.949 358.847C308.565 359.037 308.115 359.132 307.598 359.132ZM314.705 352.455V353.477H311.13V352.455H314.705ZM312.088 350.886H313.363V357.078C313.363 357.325 313.4 357.511 313.473 357.636C313.547 357.759 313.642 357.842 313.759 357.888C313.878 357.93 314.007 357.952 314.147 357.952C314.249 357.952 314.338 357.945 314.415 357.93C314.492 357.916 314.551 357.905 314.594 357.896L314.824 358.949C314.75 358.977 314.645 359.006 314.509 359.034C314.373 359.065 314.202 359.082 313.998 359.085C313.662 359.091 313.35 359.031 313.06 358.906C312.77 358.781 312.536 358.588 312.357 358.327C312.178 358.065 312.088 357.737 312.088 357.342V350.886ZM318.865 359.132C318.22 359.132 317.665 358.994 317.199 358.719C316.736 358.44 316.378 358.05 316.125 357.547C315.875 357.041 315.75 356.449 315.75 355.77C315.75 355.099 315.875 354.509 316.125 353.997C316.378 353.486 316.73 353.087 317.182 352.8C317.636 352.513 318.168 352.369 318.776 352.369C319.145 352.369 319.503 352.43 319.849 352.553C320.196 352.675 320.507 352.866 320.783 353.128C321.058 353.389 321.276 353.729 321.435 354.146C321.594 354.561 321.673 355.065 321.673 355.659V356.111H316.47V355.156H320.425C320.425 354.821 320.357 354.524 320.22 354.266C320.084 354.004 319.892 353.798 319.645 353.648C319.401 353.497 319.114 353.422 318.784 353.422C318.426 353.422 318.114 353.51 317.847 353.686C317.582 353.859 317.378 354.087 317.233 354.368C317.091 354.646 317.02 354.949 317.02 355.276V356.021C317.02 356.459 317.097 356.831 317.25 357.138C317.406 357.445 317.624 357.679 317.902 357.841C318.18 358 318.506 358.08 318.878 358.08C319.119 358.08 319.339 358.045 319.538 357.977C319.737 357.906 319.909 357.801 320.054 357.662C320.199 357.523 320.31 357.351 320.386 357.146L321.592 357.364C321.496 357.719 321.322 358.03 321.072 358.297C320.825 358.561 320.514 358.767 320.139 358.915C319.767 359.06 319.342 359.132 318.865 359.132ZM325.537 359.128C325.009 359.128 324.537 358.993 324.123 358.723C323.711 358.45 323.387 358.062 323.151 357.56C322.918 357.054 322.801 356.447 322.801 355.74C322.801 355.033 322.919 354.428 323.155 353.925C323.394 353.422 323.721 353.037 324.135 352.77C324.55 352.503 325.02 352.369 325.546 352.369C325.952 352.369 326.279 352.438 326.526 352.574C326.776 352.707 326.969 352.864 327.105 353.043C327.245 353.222 327.353 353.379 327.429 353.516H327.506V350.273H328.78V359H327.536V357.982H327.429C327.353 358.121 327.242 358.28 327.097 358.459C326.955 358.638 326.759 358.794 326.509 358.928C326.259 359.061 325.935 359.128 325.537 359.128ZM325.819 358.041C326.185 358.041 326.495 357.945 326.748 357.751C327.003 357.555 327.196 357.284 327.327 356.938C327.461 356.591 327.527 356.187 327.527 355.727C327.527 355.273 327.462 354.875 327.331 354.534C327.201 354.193 327.009 353.928 326.756 353.737C326.503 353.547 326.191 353.452 325.819 353.452C325.435 353.452 325.115 353.551 324.86 353.75C324.604 353.949 324.411 354.22 324.28 354.564C324.152 354.908 324.088 355.295 324.088 355.727C324.088 356.165 324.154 356.558 324.284 356.908C324.415 357.257 324.608 357.534 324.864 357.739C325.123 357.94 325.441 358.041 325.819 358.041Z" fill="#710E21"/>
</g>
<defs>
<filter id="filter0_d_3281_20095" x="0" y="0" width="356" height="384" filterUnits="userSpaceOnUse" color-interpolation-filters="sRGB">
<feFlood flood-opacity="0" result="BackgroundImageFix"/>
<feColorMatrix in="SourceAlpha" type="matrix" values="0 0 0 0 0 0 0 0 0 0 0 0 0 0 0 0 0 0 127 0" result="hardAlpha"/>
<feOffset dy="1"/>
<feGaussianBlur stdDeviation="1"/>
<feComposite in2="hardAlpha" operator="out"/>
<feColorMatrix type="matrix" values="0 0 0 0 0.894118 0 0 0 0 0.898039 0 0 0 0 0.905882 0 0 0 0.24 0"/>
<feBlend mode="normal" in2="BackgroundImageFix" result="effect1_dropShadow_3281_20095"/>
<feBlend mode="normal" in="SourceGraphic" in2="effect1_dropShadow_3281_20095" result="shape"/>
</filter>
<filter id="filter1_d_3281_20095" x="270" y="17.5" width="70" height="33" filterUnits="userSpaceOnUse" color-interpolation-filters="sRGB">
<feFlood flood-opacity="0" result="BackgroundImageFix"/>
<feColorMatrix in="SourceAlpha" type="matrix" values="0 0 0 0 0 0 0 0 0 0 0 0 0 0 0 0 0 0 127 0" result="hardAlpha"/>
<feOffset dy="1"/>
<feGaussianBlur stdDeviation="1"/>
<feComposite in2="hardAlpha" operator="out"/>
<feColorMatrix type="matrix" values="0 0 0 0 0.321569 0 0 0 0 0.345098 0 0 0 0 0.4 0 0 0 0.06 0"/>
<feBlend mode="normal" in2="BackgroundImageFix" result="effect1_dropShadow_3281_20095"/>
<feBlend mode="normal" in="SourceGraphic" in2="effect1_dropShadow_3281_20095" result="shape"/>
</filter>
<clipPath id="clip0_3281_20095">
<path d="M18 65H338V225H18V65Z" fill="white"/>
</clipPath>
</defs>
</svg>
