<svg xmlns="http://www.w3.org/2000/svg" width="194" height="40" viewBox="0 0 194 40" fill="none"><path d="M64.4661 28.0056V32.1927H47.2652V7.62354H64.1521V11.8107H52.0802V17.728H62.4775V21.6038H52.0802V28.0056H64.4661Z" fill="black"></path><path d="M70.816 32.1014L64.0822 13.8899H68.8971L73.5723 27.8616L78.1778 13.8899H82.6089L75.875 32.1014H70.816Z" fill="black"></path><path d="M86.5513 21.4958H96.1111C96.018 20.5864 95.7563 19.7963 95.3261 19.1256C94.8954 18.4548 94.3317 17.932 93.634 17.5569C92.9362 17.1817 92.1565 16.9942 91.2963 16.9942C90.459 16.9942 89.6968 17.1817 89.011 17.5569C88.3246 17.932 87.7665 18.4548 87.3363 19.1256C86.9057 19.7963 86.6439 20.5864 86.5513 21.4958ZM91.3312 32.3487C89.8659 32.3487 88.54 32.1011 87.3537 31.607C86.1674 31.1125 85.1557 30.4337 84.3183 29.5711C83.4809 28.7085 82.8409 27.7248 82.3993 26.6206C81.9572 25.5165 81.7365 24.3317 81.7365 23.0661C81.7365 21.3638 82.1256 19.7935 82.9053 18.3551C83.6843 16.9167 84.7893 15.7662 86.2198 14.9036C87.6503 14.0411 89.3654 13.6091 91.3661 13.6091C93.3429 13.6091 95.041 14.0416 96.4601 14.9053C97.8785 15.7695 98.9721 16.9042 99.7398 18.3098C100.507 19.7156 100.891 21.2476 100.891 22.9063C100.891 23.2063 100.879 23.4881 100.856 23.7531C100.833 24.0181 100.809 24.2429 100.786 24.427H86.6909C86.7606 25.3824 87.0223 26.1954 87.4759 26.866C87.9294 27.5367 88.5106 28.0541 89.2203 28.4179C89.9296 28.7821 90.6798 28.9637 91.4707 28.9637C92.4243 28.9637 93.314 28.7368 94.1399 28.2832C94.9652 27.8296 95.5295 27.2189 95.8321 26.4511L99.8096 27.5678C99.3909 28.4986 98.7742 29.3246 97.9603 30.0454C97.1459 30.7668 96.1809 31.3311 95.0644 31.738C93.9479 32.1447 92.7034 32.3487 91.3312 32.3487Z" fill="black"></path><path d="M119.139 32.1014H114.464V21.9342C114.464 20.4817 114.213 19.4213 113.714 18.7526C113.213 18.0842 112.498 17.7498 111.568 17.7498C110.94 17.7498 110.306 17.9099 109.666 18.2295C109.026 18.5497 108.456 18.9894 107.957 19.5486C107.456 20.1084 107.067 20.7537 106.788 21.4845V32.1014H102.147V13.8899H106.369V17.287C106.834 16.5007 107.427 15.8413 108.148 15.3094C108.869 14.7776 109.695 14.3608 110.626 14.0604C111.556 13.7599 112.556 13.6091 113.626 13.6091C114.766 13.6091 115.702 13.8121 116.435 14.2167C117.168 14.6213 117.726 15.1707 118.11 15.8647C118.493 16.5588 118.761 17.3276 118.912 18.1719C119.063 19.0162 119.139 19.8661 119.139 20.7213V32.1014Z" fill="black"></path><path d="M132.467 30.9869C132.048 31.1694 131.565 31.3572 131.019 31.5503C130.472 31.7439 129.879 31.9029 129.24 32.0283C128.6 32.1531 127.954 32.2161 127.303 32.2161C126.419 32.2161 125.617 32.0694 124.896 31.7764C124.175 31.4831 123.599 31.0153 123.169 30.3724C122.738 29.73 122.523 28.8899 122.523 27.8528V17.1873H120.151V13.7048H122.523V7.67554H127.234V13.7048H131.072V17.1873H127.234V26.2983C127.256 26.9053 127.431 27.3491 127.757 27.6298C128.082 27.9104 128.501 28.0507 129.013 28.0507C129.478 28.0507 129.943 27.9653 130.409 27.7947C130.874 27.6239 131.257 27.4703 131.56 27.3336L132.467 30.9869Z" fill="black"></path><path d="M154.587 7.62354V32.1927H149.807V21.7076H138.573V32.1927H133.758V7.62354H138.573V17.555H149.807V7.62354H154.587Z" fill="black"></path><path d="M161.077 21.4958H170.637C170.544 20.5864 170.282 19.7963 169.852 19.1256C169.421 18.4548 168.857 17.932 168.16 17.5569C167.462 17.1817 166.682 16.9942 165.822 16.9942C164.985 16.9942 164.223 17.1817 163.537 17.5569C162.85 17.932 162.292 18.4548 161.862 19.1256C161.431 19.7963 161.17 20.5864 161.077 21.4958ZM165.857 32.3487C164.392 32.3487 163.066 32.1011 161.879 31.607C160.693 31.1125 159.681 30.4337 158.844 29.5711C158.007 28.7085 157.367 27.7248 156.925 26.6206C156.483 25.5165 156.262 24.3317 156.262 23.0661C156.262 21.3638 156.651 19.7935 157.431 18.3551C158.21 16.9167 159.315 15.7662 160.745 14.9036C162.176 14.0411 163.891 13.6091 165.892 13.6091C167.869 13.6091 169.567 14.0416 170.986 14.9053C172.404 15.7695 173.498 16.9042 174.266 18.3098C175.033 19.7156 175.417 21.2476 175.417 22.9063C175.417 23.2063 175.405 23.4881 175.382 23.7531C175.359 24.0181 175.335 24.2429 175.312 24.427H161.217C161.286 25.3824 161.548 26.1954 162.002 26.866C162.455 27.5367 163.036 28.0541 163.746 28.4179C164.455 28.7821 165.206 28.9637 165.996 28.9637C166.95 28.9637 167.84 28.7368 168.666 28.2832C169.491 27.8296 170.055 27.2189 170.358 26.4511L174.335 27.5678C173.917 28.4986 173.3 29.3246 172.486 30.0454C171.672 30.7668 170.707 31.3311 169.59 31.738C168.474 32.1447 167.229 32.3487 165.857 32.3487Z" fill="black"></path><path d="M178.976 13.8882L182.779 19.6256L183.093 20.294L183.441 19.6256L187.245 13.8882H192.164L185.814 23.0746L192.269 32.331H187.349L183.441 26.5942L183.093 25.9956L182.814 26.5942L178.906 32.331H173.986L180.441 23.1801L174.091 13.8882H178.976Z" fill="black"></path><path d="M14.4748 1.25C7.1827 1.25 1.25 7.18248 1.25 14.4747V25.5253C1.25 32.8174 7.1827 38.75 14.4748 38.75H25.5253C32.8174 38.75 38.75 32.8174 38.75 25.5253V20.6207L32.8656 24.1143V25.5253C32.8656 29.5727 29.5727 32.8655 25.5253 32.8655H14.4748C10.4273 32.8655 7.13449 29.5727 7.13449 25.5253V14.4747C7.13449 10.4272 10.4273 7.13438 14.4748 7.13438H25.5253C28.1869 7.13438 30.6664 8.6165 31.9512 10.9378L19.8309 18.2842L16.4566 12.7172L15.1579 13.5043C15.1587 13.5058 15.1597 13.507 15.1606 13.5085C15.5476 14.1573 15.3198 15.006 14.6521 15.4043C13.9889 15.7997 13.1417 15.6014 12.7511 14.9632L11.4244 15.7673L17.8487 26.3666L38.7307 13.7095L38.711 13.4511C38.5815 11.7609 38.1333 10.1416 37.3856 8.62914L37.3943 8.62393L36.9979 7.8788L36.9913 7.88264C34.6306 3.7801 30.2779 1.25 25.5253 1.25H14.4748Z" fill="#FF5F4A"></path></svg>