<svg width="203" height="36" viewBox="0 0 203 36" fill="none" xmlns="http://www.w3.org/2000/svg">
<g clip-path="url(#clip0_615_1736)">
<path d="M51.3148 15.9425H62.9462C63.0123 16.2011 63.0666 16.5151 63.1115 16.8822C63.1564 17.2493 63.1776 17.6164 63.1776 17.9835C63.1776 19.4727 62.9462 20.8788 62.4809 22.1948C62.018 23.5132 61.2883 24.6884 60.294 25.7274C59.2336 26.8287 57.963 27.683 56.4822 28.2879C55.0014 28.8928 53.3128 29.1953 51.4116 29.1953C49.6876 29.1953 48.0651 28.8928 46.5395 28.2879C45.0162 27.683 43.6889 26.8402 42.5623 25.7597C41.4358 24.6792 40.5407 23.4001 39.8771 21.9201C39.2135 20.4401 38.8828 18.8262 38.8828 17.0761C38.8828 15.326 39.2135 13.7122 39.8771 12.2322C40.5407 10.7522 41.4334 9.47313 42.5623 8.39259C43.6889 7.31205 45.0138 6.46932 46.5395 5.86441C48.0651 5.25949 49.6876 4.95703 51.4116 4.95703C53.3341 4.95703 55.051 5.28027 56.5649 5.92905C58.0787 6.57784 59.3753 7.47367 60.4593 8.61885L57.3773 11.5672C56.6027 10.7684 55.743 10.1589 54.7912 9.73633C53.8418 9.31382 52.7035 9.10371 51.3786 9.10371C50.2946 9.10371 49.2696 9.29304 48.2966 9.67169C47.3235 10.0503 46.4733 10.5837 45.7459 11.2763C45.0162 11.9667 44.4375 12.8048 44.0053 13.7884C43.5732 14.7719 43.3582 15.8686 43.3582 17.0761C43.3582 18.2837 43.5732 19.3827 44.0053 20.3639C44.4352 21.3475 45.0209 22.1833 45.7624 22.876C46.5017 23.5686 47.359 24.1019 48.332 24.4806C49.3026 24.8592 50.3418 25.0463 51.4471 25.0463C52.7059 25.0463 53.7733 24.8685 54.6448 24.5106C55.5186 24.1551 56.2626 23.6956 56.8813 23.1345C57.323 22.7467 57.7032 22.2549 58.0244 21.6615C58.3456 21.0681 58.5936 20.4032 58.7707 19.669H51.3148V15.9425Z" fill="#17172D"/>
<path d="M73.2272 12.2812C74.486 12.2812 75.6409 12.4914 76.6895 12.9139C77.7381 13.3341 78.645 13.9182 79.4078 14.664C80.1706 15.4097 80.7658 16.3009 81.198 17.3376C81.6278 18.3743 81.8451 19.5079 81.8451 20.7385C81.8451 21.9691 81.6302 23.1028 81.198 24.1395C80.7658 25.1761 80.1706 26.0673 79.4078 26.8131C78.645 27.5589 77.7381 28.1407 76.6895 28.5632C75.6409 28.9834 74.486 29.1958 73.2272 29.1958C71.9684 29.1958 70.8136 28.9857 69.765 28.5632C68.714 28.143 67.8095 27.5589 67.0467 26.8131C66.2838 26.0673 65.6887 25.1761 65.2565 24.1395C64.8266 23.1028 64.6094 21.9691 64.6094 20.7385C64.6094 19.5079 64.8243 18.3743 65.2565 17.3376C65.6887 16.3009 66.2838 15.4097 67.0467 14.664C67.8095 13.9182 68.714 13.3364 69.765 12.9139C70.8136 12.4937 71.9684 12.2812 73.2272 12.2812ZM73.2272 25.2731C73.7799 25.2731 74.316 25.1715 74.8332 24.966C75.3528 24.7605 75.8109 24.465 76.21 24.0748C76.6068 23.6869 76.9233 23.2113 77.1547 22.6503C77.3862 22.0892 77.5019 21.452 77.5019 20.7385C77.5019 20.0251 77.3862 19.3879 77.1547 18.8268C76.9233 18.2658 76.6068 17.7901 76.21 17.4023C75.8133 17.0144 75.3528 16.7165 74.8332 16.511C74.3136 16.3056 73.7775 16.204 73.2272 16.204C72.6769 16.204 72.1125 16.3056 71.6024 16.511C71.0946 16.7165 70.6412 17.0121 70.2444 17.4023C69.8476 17.7901 69.5312 18.2658 69.2997 18.8268C69.0683 19.3879 68.9525 20.0251 68.9525 20.7385C68.9525 21.452 69.0683 22.0892 69.2997 22.6503C69.5312 23.2113 69.8476 23.6869 70.2444 24.0748C70.6412 24.4627 71.0946 24.7605 71.6024 24.966C72.1101 25.1715 72.651 25.2731 73.2272 25.2731Z" fill="#17172D"/>
<path d="M105.239 24.9493C104.068 26.3323 102.689 27.3851 101.097 28.1078C99.505 28.8305 97.7266 29.1929 95.7617 29.1929C93.9928 29.1929 92.3537 28.8789 90.8399 28.2532C89.326 27.6275 88.0176 26.7733 86.9124 25.6951C85.8071 24.6145 84.9356 23.3354 84.2932 21.8554C83.6532 20.3755 83.332 18.7824 83.332 17.0761C83.332 15.3699 83.6509 13.7768 84.2932 12.2968C84.9333 10.8169 85.8071 9.53777 86.9124 8.45724C88.0176 7.3767 89.326 6.52474 90.8399 5.89673C92.3537 5.27103 93.9928 4.95703 95.7617 4.95703C97.6605 4.95703 99.3349 5.28027 100.783 5.92905C102.23 6.57784 103.517 7.51754 104.644 8.74815L101.496 11.7289C100.79 10.93 99.9773 10.2928 99.061 9.81714C98.1446 9.34152 97.0559 9.10371 95.7971 9.10371C94.6918 9.10371 93.655 9.29304 92.682 9.67169C91.709 10.0503 90.8635 10.5837 90.1455 11.2763C89.4276 11.9667 88.8584 12.8048 88.438 13.7884C88.0176 14.7719 87.8098 15.8686 87.8098 17.0761C87.8098 18.2837 88.02 19.3827 88.438 20.3639C88.8584 21.3475 89.4276 22.1833 90.1455 22.8736C90.8635 23.5663 91.709 24.0996 92.682 24.4783C93.655 24.8569 94.6918 25.044 95.7971 25.044C97.122 25.044 98.2981 24.7807 99.3278 24.2497C100.355 23.721 101.267 22.9706 102.063 21.9986L105.244 24.947L105.239 24.9493Z" fill="#17172D"/>
<path d="M117.203 26.9902H116.938C116.43 27.5951 115.816 28.1146 115.098 28.5463C114.38 28.9781 113.457 29.1951 112.33 29.1951C111.49 29.1951 110.701 29.0589 109.962 28.7888C109.22 28.5186 108.575 28.1469 108.023 27.6713C107.47 27.1957 107.04 26.6231 106.731 25.9535C106.421 25.2839 106.266 24.5497 106.266 23.7509C106.266 22.952 106.431 22.1901 106.762 21.5321C107.092 20.874 107.557 20.3061 108.153 19.8305C108.75 19.3548 109.449 18.9946 110.257 18.7453C111.062 18.4959 111.941 18.3736 112.893 18.3736C113.953 18.3736 114.824 18.4544 115.512 18.616C116.197 18.7776 116.759 18.9462 117.203 19.1193V18.6345C117.203 17.7917 116.86 17.0945 116.175 16.545C115.49 15.9932 114.64 15.7184 113.622 15.7184C112.12 15.7184 110.85 16.3349 109.811 17.5655L106.662 15.4598C108.386 13.3426 110.739 12.2852 113.722 12.2852C116.241 12.2852 118.162 12.8624 119.489 14.0191C120.814 15.1758 121.477 16.8867 121.477 19.154V28.6779H117.203V26.9925V26.9902ZM117.203 22.227C116.695 21.9892 116.171 21.7999 115.63 21.6614C115.089 21.5205 114.496 21.4513 113.856 21.4513C112.817 21.4513 112.016 21.6729 111.454 22.1162C110.89 22.5595 110.609 23.1044 110.609 23.7532C110.609 24.402 110.878 24.9191 111.421 25.307C111.962 25.6949 112.586 25.8912 113.294 25.8912C113.868 25.8912 114.399 25.7896 114.886 25.5841C115.372 25.3786 115.786 25.1085 116.128 24.7737C116.471 24.4389 116.735 24.051 116.924 23.6077C117.111 23.1644 117.205 22.7073 117.205 22.2316" fill="#17172D"/>
<path d="M124.105 12.8007H128.182V14.8741H128.446C128.954 14.096 129.644 13.4703 130.517 12.9947C131.391 12.5191 132.357 12.2812 133.418 12.2812C134.655 12.2812 135.692 12.5629 136.533 13.124C137.371 13.685 137.969 14.3777 138.323 15.1973C138.831 14.3985 139.549 13.7127 140.477 13.1401C141.405 12.5675 142.531 12.2812 143.856 12.2812C144.851 12.2812 145.713 12.4383 146.442 12.7499C147.172 13.0639 147.772 13.5003 148.249 14.0614C148.724 14.6224 149.083 15.2989 149.326 16.0862C149.569 16.8758 149.692 17.7324 149.692 18.6629V28.674H145.351V19.441C145.351 17.2822 144.444 16.2017 142.633 16.2017C142.059 16.2017 141.551 16.3263 141.11 16.5734C140.668 16.8227 140.297 17.1575 140 17.5777C139.702 17.9979 139.468 18.5013 139.303 19.0854C139.138 19.6695 139.055 20.2952 139.055 20.9648V28.6763H134.714V19.4433C134.714 17.2845 133.765 16.204 131.864 16.204C131.311 16.204 130.825 16.3287 130.406 16.5757C129.986 16.8251 129.632 17.1598 129.346 17.58C129.058 18.0003 128.838 18.5036 128.682 19.0877C128.527 19.6719 128.451 20.2975 128.451 20.9671V28.6786H124.11V12.8007H124.105Z" fill="#17172D"/>
<path d="M152.391 12.8007H156.467V14.7125H156.731C157.128 14.0429 157.747 13.4703 158.588 12.9947C159.426 12.5191 160.465 12.2812 161.703 12.2812C162.742 12.2812 163.729 12.4914 164.669 12.9139C165.607 13.3341 166.436 13.9182 167.154 14.664C167.872 15.4097 168.441 16.3009 168.861 17.3376C169.282 18.3743 169.492 19.5079 169.492 20.7385C169.492 21.9692 169.282 23.1028 168.861 24.1395C168.441 25.1761 167.872 26.0673 167.154 26.8131C166.436 27.5589 165.607 28.1407 164.669 28.5632C163.729 28.9834 162.742 29.1958 161.703 29.1958C160.465 29.1958 159.426 28.958 158.588 28.4824C157.747 28.0068 157.131 27.4342 156.731 26.7646H156.467L156.731 29.0319V35.6744H152.391V12.8007ZM160.81 25.2731C161.384 25.2731 161.932 25.1646 162.451 24.9499C162.971 24.7351 163.429 24.4327 163.826 24.0425C164.223 23.6546 164.544 23.179 164.787 22.6179C165.03 22.0569 165.151 21.4312 165.151 20.7385C165.151 20.0459 165.028 19.4225 164.787 18.8591C164.544 18.2981 164.223 17.8225 163.826 17.4346C163.429 17.0467 162.969 16.7442 162.451 16.5272C161.932 16.3125 161.386 16.204 160.81 16.204C160.234 16.204 159.688 16.3056 159.169 16.511C158.649 16.7165 158.191 17.0121 157.794 17.4023C157.397 17.7901 157.076 18.2658 156.833 18.8268C156.59 19.3879 156.469 20.0251 156.469 20.7385C156.469 21.452 156.59 22.0892 156.833 22.6503C157.076 23.2113 157.397 23.6869 157.794 24.0748C158.193 24.4627 158.649 24.7605 159.169 24.966C159.688 25.1715 160.234 25.2731 160.81 25.2731Z" fill="#17172D"/>
<path d="M182.685 26.6024H182.42C181.913 27.4013 181.228 28.0339 180.366 28.498C179.504 28.9621 178.521 29.1952 177.416 29.1952C175.361 29.1952 173.831 28.5788 172.827 27.3482C171.821 26.1176 171.32 24.476 171.32 22.4234V12.8002H175.661V21.9039C175.661 23.0491 175.921 23.8965 176.44 24.446C176.96 24.9978 177.716 25.2725 178.71 25.2725C179.308 25.2725 179.832 25.1478 180.285 24.9008C180.739 24.6538 181.124 24.319 181.445 23.8965C181.764 23.4762 182.009 22.9798 182.175 22.4049C182.34 21.8324 182.423 21.2228 182.423 20.574V12.7979H186.763V28.6734H182.687V26.6001L182.685 26.6024Z" fill="#17172D"/>
<path d="M196.073 29.1935C195.013 29.1935 194.068 29.0642 193.239 28.8056C192.41 28.547 191.692 28.2053 191.085 27.7851C190.478 27.3649 189.964 26.8777 189.543 26.3259C189.123 25.7741 188.802 25.22 188.582 24.6566L192.46 23.0358C192.835 23.8578 193.338 24.4673 193.969 24.8667C194.6 25.2662 195.301 25.467 196.073 25.467C196.846 25.467 197.497 25.3262 197.963 25.0445C198.426 24.7652 198.659 24.4281 198.659 24.0402C198.659 23.6084 198.466 23.2575 198.081 22.9873C197.693 22.7172 197.025 22.4748 196.076 22.2578L193.79 21.7706C193.282 21.6621 192.758 21.4889 192.214 21.2534C191.673 21.0156 191.182 20.7131 190.741 20.346C190.299 19.9789 189.935 19.5356 189.647 19.0184C189.359 18.5013 189.217 17.8964 189.217 17.2037C189.217 16.4256 189.387 15.7353 189.732 15.1304C190.075 14.5254 190.545 14.0129 191.14 13.5927C191.737 13.1725 192.436 12.8469 193.244 12.6206C194.052 12.3944 194.918 12.2812 195.847 12.2812C197.394 12.2812 198.773 12.5791 199.989 13.1725C201.203 13.7658 202.098 14.7102 202.674 16.0077L198.929 17.4969C198.619 16.8712 198.166 16.4164 197.571 16.137C196.973 15.8553 196.378 15.7168 195.78 15.7168C195.183 15.7168 194.621 15.8415 194.156 16.0885C193.69 16.3379 193.459 16.6565 193.459 17.0444C193.459 17.4115 193.653 17.7024 194.038 17.9194C194.425 18.1365 194.949 18.3304 195.613 18.5036L198.097 19.0877C199.755 19.4756 200.986 20.0967 201.793 20.951C202.599 21.8052 203.003 22.8142 203.003 23.9802C203.003 24.6705 202.837 25.3308 202.507 25.9565C202.176 26.5822 201.706 27.1386 201.099 27.6258C200.492 28.113 199.762 28.4962 198.912 28.7756C198.062 29.0573 197.117 29.1981 196.078 29.1981" fill="#17172D"/>
<path d="M29.0145 18.6794C27.5148 17.2133 25.4389 17.2295 21.3035 17.2618C20.262 17.271 17.5839 17.2803 16.2282 17.2687L16.1928 21.4523C17.5839 21.4639 20.2809 21.4523 21.339 21.4454C21.9436 21.4408 22.5529 21.4362 23.1268 21.4385C20.9021 23.7958 17.7846 26.705 15.0309 27.4969L14.9954 27.5061C12.159 28.3742 9.15259 27.8224 7.14278 26.0654L7.10735 26.0354C4.08674 23.5026 3.43491 19.2982 5.49195 15.5625C6.08001 14.4727 6.79797 13.443 7.61748 12.4894C8.09218 11.9376 8.60467 11.4089 9.1455 10.9125C11.408 12.0184 14.0224 12.688 16.736 12.8265V12.8034C17.4563 12.8404 18.1719 12.8381 18.8804 12.7965C21.2587 12.6533 23.5401 12.0669 25.453 10.9979L25.531 10.9517C27.2857 9.8735 28.2399 8.16495 28.0863 6.38022C27.9352 4.61396 26.7048 3.09936 24.7941 2.32589L24.7351 2.3005C21.8633 1.23612 18.7931 1.76023 15.9071 2.4852L15.8575 2.49906C14.0885 2.98622 12.3834 3.69273 10.7822 4.58163C12.4165 5.68526 14.6601 6.41254 16.9297 6.55107C16.9509 6.54415 16.9722 6.53953 16.9934 6.5326C19.0316 6.02235 21.3484 5.5398 23.1811 6.20244C23.6038 6.38022 23.8093 6.59956 23.8188 6.73347C23.8306 6.85584 23.6936 7.12828 23.2826 7.39149C22.0664 8.06337 20.6234 8.46511 19.0977 8.61287C18.3963 8.68214 17.676 8.6983 16.9533 8.66366V8.64981C15.6851 8.58517 14.4333 8.37044 13.2596 8.0195C11.5757 7.51848 10.0453 6.75194 8.8432 5.77992C8.69678 5.65986 8.55508 5.5398 8.4181 5.41282L8.3992 5.39434C6.87118 4.03444 5.71867 2.29588 4.47642 0.331055L0.837038 2.52676C2.19738 4.68091 3.57897 6.75656 5.51084 8.47665C5.52029 8.48588 5.53446 8.49743 5.54391 8.50897C5.04087 9.00768 4.5638 9.52486 4.11508 10.0651C3.19402 11.1688 2.38868 12.3486 1.71323 13.5954C-1.30739 19.0835 -0.265877 25.3497 4.30165 29.1985C6.47206 31.0894 9.34625 32.0938 12.3244 32.0938C13.6304 32.0938 14.9576 31.9022 16.2542 31.505C19.9645 30.4291 23.5968 27.1021 26.1734 24.3799C26.1734 24.8833 26.1686 25.412 26.1639 25.9384C26.1545 27.0328 26.1427 29.7411 26.1592 31.2049L30.4386 31.1587C30.4221 29.7365 30.4339 27.0513 30.4433 25.9754C30.4764 22.2073 30.4953 20.1317 29.0098 18.6771" fill="#FF5F4A"/>
</g>
<defs>
<clipPath id="clip0_615_1736">
<rect width="203" height="35.3437" fill="white" transform="translate(0 0.328125)"/>
</clipPath>
</defs>
</svg>
