<svg width="38" height="38" viewBox="0 0 38 38" fill="none" xmlns="http://www.w3.org/2000/svg">
<path d="M13.501 0.389657C6.26328 0.389657 0.375 6.27788 0.375 13.5155V24.4836C0.375 31.7213 6.26327 37.6095 13.501 37.6095H24.469C31.7067 37.6095 37.595 31.7213 37.595 24.4836V19.6157L31.7545 23.0832V24.4836C31.7545 28.5008 28.4862 31.769 24.4691 31.769H13.501C9.4838 31.769 6.21553 28.5008 6.21553 24.4836V13.5155C6.21553 9.49833 9.4838 6.23019 13.501 6.23019H24.4691C27.1107 6.23019 29.5717 7.70119 30.8469 10.005L18.8171 17.2966L15.468 11.7712L14.179 12.5525C14.1799 12.5539 14.1809 12.5552 14.1818 12.5566C14.5657 13.2006 14.3397 14.043 13.677 14.4382C13.0188 14.8307 12.1778 14.634 11.7901 14.0005L10.4733 14.7986L16.8498 25.3187L37.5758 12.756L37.5562 12.4997C37.4277 10.822 36.9828 9.21488 36.2407 7.71365L36.2494 7.7084L35.856 6.96887L35.8495 6.9728C33.5064 2.90088 29.1861 0.389648 24.469 0.389648L13.501 0.389657Z" fill="#FF5F4A"/>
</svg>
