<svg width="31" height="33" viewBox="0 0 31 33" fill="none" xmlns="http://www.w3.org/2000/svg">
<path d="M29.0145 18.6794C27.5148 17.2133 25.4389 17.2295 21.3035 17.2618C20.262 17.271 17.5839 17.2803 16.2282 17.2687L16.1928 21.4523C17.5839 21.4639 20.2809 21.4523 21.339 21.4454C21.9436 21.4408 22.5529 21.4362 23.1268 21.4385C20.9021 23.7958 17.7846 26.705 15.0309 27.4969L14.9954 27.5061C12.159 28.3742 9.15259 27.8224 7.14278 26.0654L7.10735 26.0354C4.08674 23.5026 3.43491 19.2982 5.49195 15.5625C6.08001 14.4727 6.79797 13.443 7.61748 12.4894C8.09218 11.9376 8.60467 11.4089 9.1455 10.9125C11.408 12.0184 14.0224 12.688 16.736 12.8265V12.8034C17.4563 12.8404 18.1719 12.8381 18.8804 12.7965C21.2587 12.6533 23.5401 12.0669 25.453 10.9979L25.531 10.9517C27.2857 9.8735 28.2399 8.16495 28.0863 6.38022C27.9352 4.61396 26.7048 3.09936 24.7941 2.32589L24.7351 2.3005C21.8633 1.23612 18.7931 1.76023 15.9071 2.4852L15.8575 2.49906C14.0885 2.98622 12.3834 3.69273 10.7822 4.58163C12.4165 5.68526 14.6601 6.41254 16.9297 6.55107C16.9509 6.54415 16.9722 6.53953 16.9934 6.5326C19.0316 6.02235 21.3484 5.5398 23.1811 6.20244C23.6038 6.38022 23.8093 6.59956 23.8188 6.73347C23.8306 6.85584 23.6936 7.12828 23.2826 7.39149C22.0664 8.06337 20.6234 8.46511 19.0977 8.61287C18.3963 8.68214 17.676 8.6983 16.9533 8.66366V8.64981C15.6851 8.58517 14.4333 8.37044 13.2596 8.0195C11.5757 7.51848 10.0453 6.75194 8.8432 5.77992C8.69678 5.65986 8.55508 5.5398 8.4181 5.41282L8.3992 5.39434C6.87118 4.03444 5.71867 2.29588 4.47642 0.331055L0.837038 2.52676C2.19738 4.68091 3.57897 6.75656 5.51084 8.47665C5.52029 8.48588 5.53446 8.49743 5.54391 8.50897C5.04087 9.00768 4.5638 9.52486 4.11508 10.0651C3.19402 11.1688 2.38868 12.3486 1.71323 13.5954C-1.30739 19.0835 -0.265877 25.3497 4.30165 29.1985C6.47206 31.0894 9.34625 32.0938 12.3244 32.0938C13.6304 32.0938 14.9576 31.9022 16.2542 31.505C19.9645 30.4291 23.5968 27.1021 26.1734 24.3799C26.1734 24.8833 26.1686 25.412 26.1639 25.9384C26.1545 27.0328 26.1427 29.7411 26.1592 31.2049L30.4386 31.1587C30.4221 29.7365 30.4339 27.0513 30.4433 25.9754C30.4764 22.2073 30.4953 20.1317 29.0098 18.6771" fill="#FF5F4A"/>
</svg>
