<svg width="152" height="91" viewBox="0 0 152 91" fill="none" xmlns="http://www.w3.org/2000/svg">
<g clipPath="url(#clip0_243_93)">
<path d="M45.1576 18.2791C47.3759 18.2791 49.515 18.3583 51.7332 18.2791C53.08 18.2 54.0307 18.6748 54.823 19.8618C60.2102 28.1704 65.6766 36.4791 71.1431 44.7878C76.1342 52.3844 81.0461 59.9809 86.0372 67.5774C86.671 68.527 87.4632 69.7139 86.5125 70.6635C85.8787 71.2965 84.6904 71.6922 83.7397 71.6922C79.3824 71.7713 75.1043 71.6922 70.747 71.7713C69.2417 71.7713 68.2118 71.2965 67.4196 70.0304C62.3492 62.1965 57.2789 54.4417 52.2086 46.6078C47.059 38.7739 41.9887 30.8609 36.8391 22.9478C36.5222 22.4731 36.2053 22.0774 35.9677 21.6026C35.017 19.8618 35.8884 18.3583 37.869 18.2791C40.325 18.2791 42.7017 18.2791 45.1576 18.2791Z" fill="black"/>
<path d="M45.1576 18.2791C47.3759 18.2791 49.515 18.3583 51.7332 18.2791C53.08 18.2 54.0307 18.6748 54.823 19.8618C60.2102 28.1704 65.6766 36.4791 71.1431 44.7878C76.1342 52.3844 81.0461 59.9809 86.0372 67.5774C86.671 68.527 87.4632 69.7139 86.5125 70.6635C85.8787 71.2965 84.6904 71.6922 83.7397 71.6922C79.3824 71.7713 75.1043 71.6922 70.747 71.7713C69.2417 71.7713 68.2118 71.2965 67.4196 70.0304C62.3492 62.1965 57.2789 54.4417 52.2086 46.6078C47.059 38.7739 41.9887 30.8609 36.8391 22.9478C36.5222 22.4731 36.2053 22.0774 35.9677 21.6026C35.017 19.8618 35.8884 18.3583 37.869 18.2791C40.325 18.2791 42.7017 18.2791 45.1576 18.2791Z" fill="#3E81C2"/>
<path d="M45.1576 18.2791C47.3759 18.2791 49.515 18.3583 51.7332 18.2791C53.08 18.2 54.0307 18.6748 54.823 19.8618C60.2102 28.1704 65.6766 36.4791 71.1431 44.7878C76.1342 52.3844 81.0461 59.9809 86.0372 67.5774C86.671 68.527 87.4632 69.7139 86.5125 70.6635C85.8787 71.2965 84.6904 71.6922 83.7397 71.6922C79.3824 71.7713 75.1043 71.6922 70.747 71.7713C69.2417 71.7713 68.2118 71.2965 67.4196 70.0304C62.3492 62.1965 57.2789 54.4417 52.2086 46.6078C47.059 38.7739 41.9887 30.8609 36.8391 22.9478C36.5222 22.4731 36.2053 22.0774 35.9677 21.6026C35.017 19.8618 35.8884 18.3583 37.869 18.2791C40.325 18.2791 42.7017 18.2791 45.1576 18.2791Z" fill="url(#paint0_linear_243_93)"/>
<path d="M30.0259 91C27.966 91 25.9854 91.0791 23.9256 90.9209C23.0542 90.8418 21.945 90.367 21.5489 89.7339C21.232 89.1009 21.4697 87.8348 21.8658 87.1226C29.8674 74.62 37.869 62.1174 45.9499 49.6939C47.4551 47.32 48.9604 47.32 50.4656 49.6148C52.6839 52.8591 54.823 56.1035 57.0412 59.2687C57.9127 60.5348 57.9919 61.5635 57.1205 62.9087C51.3371 71.2965 45.5538 79.6844 39.9289 88.2304C38.5821 90.2878 36.9976 91.0791 34.6209 90.9209C33.1156 90.7626 31.5311 90.9209 29.9466 90.9209C30.0259 90.9209 30.0259 90.9209 30.0259 91Z" fill="black"/>
<path d="M30.0259 91C27.966 91 25.9854 91.0791 23.9256 90.9209C23.0542 90.8418 21.945 90.367 21.5489 89.7339C21.232 89.1009 21.4697 87.8348 21.8658 87.1226C29.8674 74.62 37.869 62.1174 45.9499 49.6939C47.4551 47.32 48.9604 47.32 50.4656 49.6148C52.6839 52.8591 54.823 56.1035 57.0412 59.2687C57.9127 60.5348 57.9919 61.5635 57.1205 62.9087C51.3371 71.2965 45.5538 79.6844 39.9289 88.2304C38.5821 90.2878 36.9976 91.0791 34.6209 90.9209C33.1156 90.7626 31.5311 90.9209 29.9466 90.9209C30.0259 90.9209 30.0259 90.9209 30.0259 91Z" fill="#3E81C2"/>
<path d="M30.0259 91C27.966 91 25.9854 91.0791 23.9256 90.9209C23.0542 90.8418 21.945 90.367 21.5489 89.7339C21.232 89.1009 21.4697 87.8348 21.8658 87.1226C29.8674 74.62 37.869 62.1174 45.9499 49.6939C47.4551 47.32 48.9604 47.32 50.4656 49.6148C52.6839 52.8591 54.823 56.1035 57.0412 59.2687C57.9127 60.5348 57.9919 61.5635 57.1205 62.9087C51.3371 71.2965 45.5538 79.6844 39.9289 88.2304C38.5821 90.2878 36.9976 91.0791 34.6209 90.9209C33.1156 90.7626 31.5311 90.9209 29.9466 90.9209C30.0259 90.9209 30.0259 90.9209 30.0259 91Z" fill="url(#paint1_linear_243_93)"/>
<path d="M89.2854 1.28336e-05C91.3452 1.28336e-05 93.3258 -0.0791176 95.3856 0.0791433C96.2571 0.158274 97.4454 0.553926 97.7623 1.18697C98.0792 1.82001 97.8416 3.0861 97.3662 3.79827C90.7114 13.7687 83.8981 23.5809 77.1641 33.4722C76.055 35.1339 74.9458 36.7957 73.8367 38.3783C72.4107 40.3565 71.0639 40.4357 69.7171 38.4574C67.578 35.3713 65.5974 32.2061 63.5376 29.0409C62.8246 27.9331 63.1415 26.9044 63.7753 25.9548C67.4196 20.5739 71.0639 15.1931 74.7082 9.73306C76.6095 6.88436 78.5109 4.03567 80.4915 1.2661C80.9669 0.633056 81.9968 0.0791433 82.8682 1.28336e-05C85.1657 -0.0791176 87.2255 1.28336e-05 89.2854 1.28336e-05Z" fill="black"/>
<path d="M89.2854 1.28336e-05C91.3452 1.28336e-05 93.3258 -0.0791176 95.3856 0.0791433C96.2571 0.158274 97.4454 0.553926 97.7623 1.18697C98.0792 1.82001 97.8416 3.0861 97.3662 3.79827C90.7114 13.7687 83.8981 23.5809 77.1641 33.4722C76.055 35.1339 74.9458 36.7957 73.8367 38.3783C72.4107 40.3565 71.0639 40.4357 69.7171 38.4574C67.578 35.3713 65.5974 32.2061 63.5376 29.0409C62.8246 27.9331 63.1415 26.9044 63.7753 25.9548C67.4196 20.5739 71.0639 15.1931 74.7082 9.73306C76.6095 6.88436 78.5109 4.03567 80.4915 1.2661C80.9669 0.633056 81.9968 0.0791433 82.8682 1.28336e-05C85.1657 -0.0791176 87.2255 1.28336e-05 89.2854 1.28336e-05Z" fill="#3E81C2"/>
<path d="M89.2854 1.28336e-05C91.3452 1.28336e-05 93.3258 -0.0791176 95.3856 0.0791433C96.2571 0.158274 97.4454 0.553926 97.7623 1.18697C98.0792 1.82001 97.8416 3.0861 97.3662 3.79827C90.7114 13.7687 83.8981 23.5809 77.1641 33.4722C76.055 35.1339 74.9458 36.7957 73.8367 38.3783C72.4107 40.3565 71.0639 40.4357 69.7171 38.4574C67.578 35.3713 65.5974 32.2061 63.5376 29.0409C62.8246 27.9331 63.1415 26.9044 63.7753 25.9548C67.4196 20.5739 71.0639 15.1931 74.7082 9.73306C76.6095 6.88436 78.5109 4.03567 80.4915 1.2661C80.9669 0.633056 81.9968 0.0791433 82.8682 1.28336e-05C85.1657 -0.0791176 87.2255 1.28336e-05 89.2854 1.28336e-05Z" fill="url(#paint2_linear_243_93)"/>
<path d="M33.4325 20.8113L40.1665 31.3357H12.4382V42.4139H34.1455V52.8591H12.4382V64.4913H33.8286C31.5311 67.973 29.3129 71.5339 27.0154 75.0157H0V27.0626C0 23.5809 2.85206 20.7322 6.25869 20.7322H33.4325V20.8113Z" fill="black"/>
<path d="M33.4325 20.8113L40.1665 31.3357H12.4382V42.4139H34.1455V52.8591H12.4382V64.4913H33.8286C31.5311 67.973 29.3129 71.5339 27.0154 75.0157H0V27.0626C0 23.5809 2.85206 20.7322 6.25869 20.7322H33.4325V20.8113Z" fill="#3E81C2"/>
<path d="M33.4325 20.8113L40.1665 31.3357H12.4382   V42.4139H34.1455V52.8591H12.4382V64.4913H33.8286C31.5311 67.973 29.3129 71.5339 27.0154 75.0157H0V27.0626C0 23.5809 2.85206 20.7322 6.25869 20.7322H33.4325V20.8113Z" fill="url(#paint3_linear_243_93)"/>
</g>
<g clipPath="url(#clip1_243_93)">
<path d="M84 50.8201V40H91.3241V41.8818H86.1646V44.4553H90.5754V46.3094H86.1646V48.966H91.2833V50.834H84V50.8201Z" fill="#202955"/>
<path d="M94.7139 50.8478L92.0456 42.5874H94.2647L96.0344 48.5094H96.1297L97.8859 42.5874H100.078L97.4094 50.8478H94.7139Z" fill="#202955"/>
<path d="M107.878 48.6617V50.4742C106.694 50.8201 105.618 51 104.638 51C101.902 51 100.541 49.561 100.541 46.6969C100.541 45.2994 100.881 44.2201 101.562 43.5006C102.242 42.7673 103.209 42.4076 104.461 42.4076C106.844 42.4076 108.028 43.722 108.028 46.3371V47.278H102.719C102.732 48.5371 103.536 49.1598 105.156 49.1598C105.537 49.1598 105.972 49.1044 106.476 49.0076C107.089 48.883 107.552 48.7723 107.878 48.6617ZM102.719 45.756H105.904C105.891 44.6214 105.36 44.0541 104.339 44.0541C103.849 44.0541 103.467 44.2201 103.168 44.5384C102.855 44.8705 102.719 45.2717 102.719 45.756Z" fill="#202955"/>
<path d="M116.741 44.8705V50.8201H114.658V45.2717C114.658 44.6352 114.358 44.3032 113.746 44.3032C113.228 44.3032 112.534 44.5384 111.636 45.0227V50.8063H109.553V42.5874H111.499V43.4591H111.554C112.67 42.7535 113.61 42.4076 114.386 42.4076C115.951 42.4076 116.741 43.2239 116.741 44.8705Z" fill="#202955"/>
<path d="M123.425 44.3862H121.002V48.2465C121.002 48.5786 121.111 48.8 121.315 48.9245C121.519 49.049 121.751 49.1182 122.009 49.1182C122.281 49.1182 122.649 49.0629 123.112 48.9384V50.7371C122.363 50.9031 121.628 50.9723 120.92 50.9723C119.572 50.9723 118.905 50.3082 118.905 48.9937V44.3862H117.898V43.0025L120.212 40.7472H120.988V42.5874H123.425V44.3862Z" fill="#202955"/>
<path d="M124.8 50.8201V40H126.951V44.4969H131.716V40H133.88V50.8201H131.716V46.3648H126.951V50.834H124.8V50.8201Z" fill="#202955"/>
<path d="M142.729 48.6617V50.4742C141.545 50.8201 140.469 51 139.489 51C136.753 51 135.391 49.561 135.391 46.6969C135.391 45.2994 135.732 44.2201 136.412 43.5006C137.093 42.7673 138.06 42.4076 139.312 42.4076C141.694 42.4076 142.879 43.722 142.879 46.3371V47.278H137.57C137.583 48.5371 138.386 49.1598 140.006 49.1598C140.388 49.1598 140.823 49.1044 141.327 49.0076C141.94 48.883 142.402 48.7723 142.729 48.6617ZM137.57 45.756H140.755C140.742 44.6214 140.211 44.0541 139.19 44.0541C138.713 44.0541 138.318 44.2201 138.019 44.5384C137.719 44.8705 137.57 45.2717 137.57 45.756Z" fill="#202955"/>
<path d="M143.519 50.8201L146.446 46.683L143.532 42.5736H146.133L147.793 45.0088L149.4 42.5736H152L149.087 46.5723L152 50.8063H149.495L147.739 48.1912L146.01 50.8063H143.519V50.8201Z" fill="#202955"/>
</g>
<defs>
<linearGradient id="paint0_linear_243_93" x1="57.9327" y1="28.1782" x2="61.2826" y2="87.1012" gradientUnits="userSpaceOnUse">
<stop stop-color="#A999FF"/>
<stop offset="0.640625" stop-color="#735AFB"/>
</linearGradient>
<linearGradient id="paint1_linear_243_93" x1="37.2104" y1="55.888" x2="40.2836" y2="103.329" gradientUnits="userSpaceOnUse">
<stop stop-color="#A999FF"/>
<stop offset="0.640625" stop-color="#735AFB"/>
</linearGradient>
<linearGradient id="paint2_linear_243_93" x1="78.2613" y1="7.36063" x2="81.0168" y2="51.3151" gradientUnits="userSpaceOnUse">
<stop stop-color="#A999FF"/>
<stop offset="0.640625" stop-color="#735AFB"/>
</linearGradient>
<linearGradient id="paint3_linear_243_93" x1="17.476" y1="30.7847" x2="21.8769" y2="90.4385" gradientUnits="userSpaceOnUse">
<stop stop-color="#A999FF"/>
<stop offset="0.640625" stop-color="#735AFB"/>
</linearGradient>
<clipPath id="clip0_243_93">
<rect width="98" height="91" fill="white"/>
</clipPath>
<clipPath id="clip1_243_93">
<rect width="68" height="11" fill="white" transform="translate(84 40)"/>
</clipPath>
</defs>
</svg>
